<?xml version="1.0" encoding="utf-8" standalone="no"?>
<!DOCTYPE svg PUBLIC "-//W3C//DTD SVG 1.1//EN"
  "http://www.w3.org/Graphics/SVG/1.1/DTD/svg11.dtd">
<svg height="390.35625pt" version="1.1" viewBox="0 0 511.357955 390.35625" width="511.357955pt" xmlns="http://www.w3.org/2000/svg" xmlns:xlink="http://www.w3.org/1999/xlink">
 <metadata>
  <rdf:RDF xmlns:cc="http://creativecommons.org/ns#" xmlns:dc="http://purl.org/dc/elements/1.1/" xmlns:rdf="http://www.w3.org/1999/02/22-rdf-syntax-ns#">
   <cc:Work>
    <dc:type rdf:resource="http://purl.org/dc/dcmitype/StillImage"/>
    <dc:date>2021-06-19T22:06:20.457073</dc:date>
    <dc:format>image/svg+xml</dc:format>
    <dc:creator>
     <cc:Agent>
      <dc:title>Matplotlib v3.4.1, https://matplotlib.org/</dc:title>
     </cc:Agent>
    </dc:creator>
   </cc:Work>
  </rdf:RDF>
 </metadata>
 <defs>
  <style type="text/css">*{stroke-linecap:butt;stroke-linejoin:round;}</style>
 </defs>
 <g id="figure_1">
  <g id="patch_1">
   <path d="M 0 390.35625 
L 511.357955 390.35625 
L 511.357955 0 
L 0 0 
z
" style="fill:#ffffff;"/>
  </g>
  <g id="axes_1">
   <g id="patch_2">
    <path d="M 55.2 348.478125 
L 501.6 348.478125 
L 501.6 22.318125 
L 55.2 22.318125 
z
" style="fill:#ffffff;"/>
   </g>
   <g id="matplotlib.axis_1">
    <g id="xtick_1">
     <g id="line2d_1">
      <defs>
       <path d="M 0 0 
L 0 3.5 
" id="md0956034a7" style="stroke:#000000;stroke-width:0.8;"/>
      </defs>
      <g>
       <use style="stroke:#000000;stroke-width:0.8;" x="75.068182" xlink:href="#md0956034a7" y="348.478125"/>
      </g>
     </g>
     <g id="text_1">
      <!-- 0 -->
      <g transform="translate(71.886932 363.076563)scale(0.1 -0.1)">
       <defs>
        <path d="M 2034 219 
Q 2513 219 2750 744 
Q 2988 1269 2988 2328 
Q 2988 3391 2750 3916 
Q 2513 4441 2034 4441 
Q 1556 4441 1318 3916 
Q 1081 3391 1081 2328 
Q 1081 1269 1318 744 
Q 1556 219 2034 219 
z
M 2034 -91 
Q 1275 -91 848 546 
Q 422 1184 422 2328 
Q 422 3475 848 4112 
Q 1275 4750 2034 4750 
Q 2797 4750 3222 4112 
Q 3647 3475 3647 2328 
Q 3647 1184 3222 546 
Q 2797 -91 2034 -91 
z
" id="DejaVuSerif-30" transform="scale(0.015625)"/>
       </defs>
       <use xlink:href="#DejaVuSerif-30"/>
      </g>
     </g>
    </g>
    <g id="xtick_2">
     <g id="line2d_2">
      <g>
       <use style="stroke:#000000;stroke-width:0.8;" x="159.613636" xlink:href="#md0956034a7" y="348.478125"/>
      </g>
     </g>
     <g id="text_2">
      <!-- 2 -->
      <g transform="translate(156.432386 363.076563)scale(0.1 -0.1)">
       <defs>
        <path d="M 819 3553 
L 469 3553 
L 469 4384 
Q 803 4563 1142 4656 
Q 1481 4750 1806 4750 
Q 2534 4750 2956 4397 
Q 3378 4044 3378 3438 
Q 3378 2753 2422 1800 
Q 2347 1728 2309 1691 
L 1131 513 
L 3078 513 
L 3078 1088 
L 3444 1088 
L 3444 0 
L 434 0 
L 434 341 
L 1850 1753 
Q 2319 2222 2519 2614 
Q 2719 3006 2719 3438 
Q 2719 3909 2473 4175 
Q 2228 4441 1797 4441 
Q 1350 4441 1106 4219 
Q 863 3997 819 3553 
z
" id="DejaVuSerif-32" transform="scale(0.015625)"/>
       </defs>
       <use xlink:href="#DejaVuSerif-32"/>
      </g>
     </g>
    </g>
    <g id="xtick_3">
     <g id="line2d_3">
      <g>
       <use style="stroke:#000000;stroke-width:0.8;" x="244.159091" xlink:href="#md0956034a7" y="348.478125"/>
      </g>
     </g>
     <g id="text_3">
      <!-- 4 -->
      <g transform="translate(240.977841 363.076563)scale(0.1 -0.1)">
       <defs>
        <path d="M 2234 1581 
L 2234 4063 
L 641 1581 
L 2234 1581 
z
M 3609 0 
L 1484 0 
L 1484 331 
L 2234 331 
L 2234 1247 
L 197 1247 
L 197 1588 
L 2241 4750 
L 2859 4750 
L 2859 1581 
L 3750 1581 
L 3750 1247 
L 2859 1247 
L 2859 331 
L 3609 331 
L 3609 0 
z
" id="DejaVuSerif-34" transform="scale(0.015625)"/>
       </defs>
       <use xlink:href="#DejaVuSerif-34"/>
      </g>
     </g>
    </g>
    <g id="xtick_4">
     <g id="line2d_4">
      <g>
       <use style="stroke:#000000;stroke-width:0.8;" x="328.704545" xlink:href="#md0956034a7" y="348.478125"/>
      </g>
     </g>
     <g id="text_4">
      <!-- 6 -->
      <g transform="translate(325.523295 363.076563)scale(0.1 -0.1)">
       <defs>
        <path d="M 2094 219 
Q 2534 219 2771 542 
Q 3009 866 3009 1472 
Q 3009 2078 2771 2401 
Q 2534 2725 2094 2725 
Q 1647 2725 1412 2412 
Q 1178 2100 1178 1509 
Q 1178 888 1415 553 
Q 1653 219 2094 219 
z
M 1075 2569 
Q 1288 2803 1556 2918 
Q 1825 3034 2163 3034 
Q 2859 3034 3264 2615 
Q 3669 2197 3669 1472 
Q 3669 763 3233 336 
Q 2797 -91 2069 -91 
Q 1278 -91 853 498 
Q 428 1088 428 2181 
Q 428 3406 931 4078 
Q 1434 4750 2350 4750 
Q 2597 4750 2869 4703 
Q 3141 4656 3425 4563 
L 3425 3794 
L 3072 3794 
Q 3034 4109 2831 4275 
Q 2628 4441 2284 4441 
Q 1678 4441 1381 3981 
Q 1084 3522 1075 2569 
z
" id="DejaVuSerif-36" transform="scale(0.015625)"/>
       </defs>
       <use xlink:href="#DejaVuSerif-36"/>
      </g>
     </g>
    </g>
    <g id="xtick_5">
     <g id="line2d_5">
      <g>
       <use style="stroke:#000000;stroke-width:0.8;" x="413.25" xlink:href="#md0956034a7" y="348.478125"/>
      </g>
     </g>
     <g id="text_5">
      <!-- 8 -->
      <g transform="translate(410.06875 363.076563)scale(0.1 -0.1)">
       <defs>
        <path d="M 2981 1275 
Q 2981 1775 2732 2051 
Q 2484 2328 2034 2328 
Q 1584 2328 1336 2051 
Q 1088 1775 1088 1275 
Q 1088 772 1336 495 
Q 1584 219 2034 219 
Q 2484 219 2732 495 
Q 2981 772 2981 1275 
z
M 2853 3541 
Q 2853 3966 2637 4203 
Q 2422 4441 2034 4441 
Q 1650 4441 1433 4203 
Q 1216 3966 1216 3541 
Q 1216 3113 1433 2875 
Q 1650 2638 2034 2638 
Q 2422 2638 2637 2875 
Q 2853 3113 2853 3541 
z
M 2516 2484 
Q 3047 2413 3344 2092 
Q 3641 1772 3641 1275 
Q 3641 619 3225 264 
Q 2809 -91 2034 -91 
Q 1263 -91 845 264 
Q 428 619 428 1275 
Q 428 1772 725 2092 
Q 1022 2413 1556 2484 
Q 1084 2569 832 2842 
Q 581 3116 581 3541 
Q 581 4103 968 4426 
Q 1356 4750 2034 4750 
Q 2713 4750 3100 4426 
Q 3488 4103 3488 3541 
Q 3488 3116 3236 2842 
Q 2984 2569 2516 2484 
z
" id="DejaVuSerif-38" transform="scale(0.015625)"/>
       </defs>
       <use xlink:href="#DejaVuSerif-38"/>
      </g>
     </g>
    </g>
    <g id="xtick_6">
     <g id="line2d_6">
      <g>
       <use style="stroke:#000000;stroke-width:0.8;" x="497.795455" xlink:href="#md0956034a7" y="348.478125"/>
      </g>
     </g>
     <g id="text_6">
      <!-- 10 -->
      <g transform="translate(491.432955 363.076563)scale(0.1 -0.1)">
       <defs>
        <path d="M 909 0 
L 909 331 
L 1722 331 
L 1722 4213 
L 781 3603 
L 781 4013 
L 1919 4750 
L 2350 4750 
L 2350 331 
L 3163 331 
L 3163 0 
L 909 0 
z
" id="DejaVuSerif-31" transform="scale(0.015625)"/>
       </defs>
       <use xlink:href="#DejaVuSerif-31"/>
       <use x="63.623047" xlink:href="#DejaVuSerif-30"/>
      </g>
     </g>
    </g>
    <g id="text_7">
     <!-- Relative probability $\left[\frac{p}{p_c}\right]$ -->
     <g transform="translate(219.15 378.95625)scale(0.1 -0.1)">
      <defs>
       <path d="M 3066 2316 
Q 3284 2256 3442 2114 
Q 3600 1972 3725 1716 
L 4403 331 
L 4972 331 
L 4972 0 
L 3872 0 
L 3144 1484 
Q 2934 1916 2759 2042 
Q 2584 2169 2278 2169 
L 1581 2169 
L 1581 331 
L 2241 331 
L 2241 0 
L 353 0 
L 353 331 
L 947 331 
L 947 4331 
L 353 4331 
L 353 4666 
L 2719 4666 
Q 3400 4666 3770 4341 
Q 4141 4016 4141 3419 
Q 4141 2938 3870 2661 
Q 3600 2384 3066 2316 
z
M 1581 2503 
L 2503 2503 
Q 2975 2503 3200 2726 
Q 3425 2950 3425 3419 
Q 3425 3888 3200 4109 
Q 2975 4331 2503 4331 
L 1581 4331 
L 1581 2503 
z
" id="DejaVuSerif-52" transform="scale(0.015625)"/>
       <path d="M 3469 1600 
L 991 1600 
L 991 1575 
Q 991 903 1244 561 
Q 1497 219 1991 219 
Q 2369 219 2611 417 
Q 2853 616 2950 1006 
L 3413 1006 
Q 3275 459 2904 184 
Q 2534 -91 1931 -91 
Q 1203 -91 761 389 
Q 319 869 319 1663 
Q 319 2450 753 2931 
Q 1188 3413 1894 3413 
Q 2647 3413 3050 2948 
Q 3453 2484 3469 1600 
z
M 2791 1931 
Q 2772 2513 2545 2808 
Q 2319 3103 1894 3103 
Q 1497 3103 1269 2806 
Q 1041 2509 991 1931 
L 2791 1931 
z
" id="DejaVuSerif-65" transform="scale(0.015625)"/>
       <path d="M 1313 331 
L 1856 331 
L 1856 0 
L 184 0 
L 184 331 
L 738 331 
L 738 4531 
L 184 4531 
L 184 4863 
L 1313 4863 
L 1313 331 
z
" id="DejaVuSerif-6c" transform="scale(0.015625)"/>
       <path d="M 2547 1044 
L 2547 1747 
L 1806 1747 
Q 1378 1747 1168 1562 
Q 959 1378 959 997 
Q 959 650 1171 447 
Q 1384 244 1747 244 
Q 2106 244 2326 466 
Q 2547 688 2547 1044 
z
M 3122 2075 
L 3122 331 
L 3634 331 
L 3634 0 
L 2547 0 
L 2547 359 
Q 2356 128 2106 18 
Q 1856 -91 1522 -91 
Q 969 -91 644 203 
Q 319 497 319 997 
Q 319 1513 691 1797 
Q 1063 2081 1741 2081 
L 2547 2081 
L 2547 2309 
Q 2547 2688 2317 2895 
Q 2088 3103 1672 3103 
Q 1328 3103 1125 2947 
Q 922 2791 872 2484 
L 575 2484 
L 575 3156 
Q 875 3284 1158 3348 
Q 1441 3413 1709 3413 
Q 2400 3413 2761 3070 
Q 3122 2728 3122 2075 
z
" id="DejaVuSerif-61" transform="scale(0.015625)"/>
       <path d="M 691 2988 
L 184 2988 
L 184 3322 
L 691 3322 
L 691 4353 
L 1269 4353 
L 1269 3322 
L 2350 3322 
L 2350 2988 
L 1269 2988 
L 1269 878 
Q 1269 456 1350 337 
Q 1431 219 1650 219 
Q 1875 219 1978 351 
Q 2081 484 2088 781 
L 2522 781 
Q 2497 328 2275 118 
Q 2053 -91 1600 -91 
Q 1103 -91 897 129 
Q 691 350 691 878 
L 691 2988 
z
" id="DejaVuSerif-74" transform="scale(0.015625)"/>
       <path d="M 622 4353 
Q 622 4497 726 4603 
Q 831 4709 978 4709 
Q 1122 4709 1226 4603 
Q 1331 4497 1331 4353 
Q 1331 4206 1228 4103 
Q 1125 4000 978 4000 
Q 831 4000 726 4103 
Q 622 4206 622 4353 
z
M 1356 331 
L 1900 331 
L 1900 0 
L 231 0 
L 231 331 
L 781 331 
L 781 2988 
L 231 2988 
L 231 3322 
L 1356 3322 
L 1356 331 
z
" id="DejaVuSerif-69" transform="scale(0.015625)"/>
       <path d="M 1581 0 
L 359 2988 
L -19 2988 
L -19 3322 
L 1509 3322 
L 1509 2988 
L 978 2988 
L 1913 703 
L 2847 2988 
L 2350 2988 
L 2350 3322 
L 3597 3322 
L 3597 2988 
L 3225 2988 
L 2003 0 
L 1581 0 
z
" id="DejaVuSerif-76" transform="scale(0.015625)"/>
       <path id="DejaVuSerif-20" transform="scale(0.015625)"/>
       <path d="M 1313 1825 
L 1313 1497 
Q 1313 897 1542 583 
Q 1772 269 2209 269 
Q 2650 269 2876 622 
Q 3103 975 3103 1663 
Q 3103 2353 2876 2703 
Q 2650 3053 2209 3053 
Q 1772 3053 1542 2737 
Q 1313 2422 1313 1825 
z
M 738 2988 
L 184 2988 
L 184 3322 
L 1313 3322 
L 1313 2803 
Q 1481 3116 1742 3264 
Q 2003 3413 2388 3413 
Q 3000 3413 3387 2928 
Q 3775 2444 3775 1663 
Q 3775 881 3387 395 
Q 3000 -91 2388 -91 
Q 2003 -91 1742 57 
Q 1481 206 1313 519 
L 1313 -997 
L 1856 -997 
L 1856 -1331 
L 184 -1331 
L 184 -997 
L 738 -997 
L 738 2988 
z
" id="DejaVuSerif-70" transform="scale(0.015625)"/>
       <path d="M 3059 3328 
L 3059 2497 
L 2728 2497 
Q 2713 2744 2591 2866 
Q 2469 2988 2234 2988 
Q 1809 2988 1582 2694 
Q 1356 2400 1356 1850 
L 1356 331 
L 2022 331 
L 2022 0 
L 263 0 
L 263 331 
L 781 331 
L 781 2994 
L 231 2994 
L 231 3322 
L 1356 3322 
L 1356 2731 
Q 1525 3078 1790 3245 
Q 2056 3413 2438 3413 
Q 2578 3413 2733 3391 
Q 2888 3369 3059 3328 
z
" id="DejaVuSerif-72" transform="scale(0.015625)"/>
       <path d="M 1925 219 
Q 2388 219 2623 584 
Q 2859 950 2859 1663 
Q 2859 2375 2623 2739 
Q 2388 3103 1925 3103 
Q 1463 3103 1227 2739 
Q 991 2375 991 1663 
Q 991 950 1228 584 
Q 1466 219 1925 219 
z
M 1925 -91 
Q 1200 -91 759 389 
Q 319 869 319 1663 
Q 319 2456 758 2934 
Q 1197 3413 1925 3413 
Q 2653 3413 3092 2934 
Q 3531 2456 3531 1663 
Q 3531 869 3092 389 
Q 2653 -91 1925 -91 
z
" id="DejaVuSerif-6f" transform="scale(0.015625)"/>
       <path d="M 738 331 
L 738 4531 
L 184 4531 
L 184 4863 
L 1313 4863 
L 1313 2803 
Q 1481 3116 1742 3264 
Q 2003 3413 2388 3413 
Q 3000 3413 3387 2928 
Q 3775 2444 3775 1663 
Q 3775 881 3387 395 
Q 3000 -91 2388 -91 
Q 2003 -91 1742 57 
Q 1481 206 1313 519 
L 1313 0 
L 184 0 
L 184 331 
L 738 331 
z
M 1313 1497 
Q 1313 897 1542 583 
Q 1772 269 2209 269 
Q 2650 269 2876 622 
Q 3103 975 3103 1663 
Q 3103 2353 2876 2703 
Q 2650 3053 2209 3053 
Q 1772 3053 1542 2737 
Q 1313 2422 1313 1825 
L 1313 1497 
z
" id="DejaVuSerif-62" transform="scale(0.015625)"/>
       <path d="M 1381 -609 
L 1600 -56 
L 359 2988 
L -19 2988 
L -19 3322 
L 1509 3322 
L 1509 2988 
L 978 2988 
L 1913 703 
L 2847 2988 
L 2350 2988 
L 2350 3322 
L 3597 3322 
L 3597 2988 
L 3225 2988 
L 1703 -750 
Q 1547 -1138 1356 -1280 
Q 1166 -1422 819 -1422 
Q 672 -1422 517 -1397 
Q 363 -1372 206 -1325 
L 206 -691 
L 500 -691 
Q 519 -903 608 -995 
Q 697 -1088 884 -1088 
Q 1056 -1088 1161 -992 
Q 1266 -897 1381 -609 
z
" id="DejaVuSerif-79" transform="scale(0.015625)"/>
       <path d="M 2701 -1786 
L 1216 -1786 
L 1216 10022 
L 2701 10022 
L 2701 9766 
L 1702 9766 
L 1702 -1530 
L 2701 -1530 
L 2701 -1786 
z
" id="STIXSizeTwoSym-Regular-5b" transform="scale(0.015625)"/>
       <path d="M 3175 2156 
Q 3175 2616 2975 2859 
Q 2775 3103 2400 3103 
Q 2144 3103 1911 2972 
Q 1678 2841 1497 2591 
Q 1319 2344 1212 1994 
Q 1106 1644 1106 1300 
Q 1106 863 1306 627 
Q 1506 391 1875 391 
Q 2147 391 2380 519 
Q 2613 647 2778 891 
Q 2956 1147 3065 1494 
Q 3175 1841 3175 2156 
z
M 1394 2969 
Q 1625 3272 1939 3428 
Q 2253 3584 2638 3584 
Q 3175 3584 3472 3232 
Q 3769 2881 3769 2247 
Q 3769 1728 3584 1258 
Q 3400 788 3053 416 
Q 2822 169 2531 39 
Q 2241 -91 1919 -91 
Q 1547 -91 1294 64 
Q 1041 219 916 525 
L 556 -1331 
L -19 -1331 
L 922 3500 
L 1497 3500 
L 1394 2969 
z
" id="DejaVuSans-Oblique-70" transform="scale(0.015625)"/>
       <path d="M 3431 3366 
L 3316 2797 
Q 3109 2947 2876 3022 
Q 2644 3097 2394 3097 
Q 2119 3097 1870 3000 
Q 1622 2903 1453 2725 
Q 1184 2453 1037 2087 
Q 891 1722 891 1331 
Q 891 859 1127 628 
Q 1363 397 1844 397 
Q 2081 397 2348 469 
Q 2616 541 2906 684 
L 2797 116 
Q 2547 13 2283 -39 
Q 2019 -91 1741 -91 
Q 1044 -91 669 257 
Q 294 606 294 1253 
Q 294 1797 489 2255 
Q 684 2713 1069 3078 
Q 1331 3328 1684 3456 
Q 2038 3584 2456 3584 
Q 2700 3584 2940 3529 
Q 3181 3475 3431 3366 
z
" id="DejaVuSans-Oblique-63" transform="scale(0.015625)"/>
       <path d="M 1722 -1786 
L 237 -1786 
L 237 -1530 
L 1235 -1530 
L 1235 9766 
L 237 9766 
L 237 10022 
L 1722 10022 
L 1722 -1786 
z
" id="STIXSizeTwoSym-Regular-5d" transform="scale(0.015625)"/>
      </defs>
      <use transform="translate(0 0.445312)" xlink:href="#DejaVuSerif-52"/>
      <use transform="translate(75.292969 0.445312)" xlink:href="#DejaVuSerif-65"/>
      <use transform="translate(134.472656 0.445312)" xlink:href="#DejaVuSerif-6c"/>
      <use transform="translate(166.455078 0.445312)" xlink:href="#DejaVuSerif-61"/>
      <use transform="translate(226.074219 0.445312)" xlink:href="#DejaVuSerif-74"/>
      <use transform="translate(266.259766 0.445312)" xlink:href="#DejaVuSerif-69"/>
      <use transform="translate(298.242188 0.445312)" xlink:href="#DejaVuSerif-76"/>
      <use transform="translate(354.736328 0.445312)" xlink:href="#DejaVuSerif-65"/>
      <use transform="translate(413.916016 0.445312)" xlink:href="#DejaVuSerif-20"/>
      <use transform="translate(445.703125 0.445312)" xlink:href="#DejaVuSerif-70"/>
      <use transform="translate(509.716797 0.445312)" xlink:href="#DejaVuSerif-72"/>
      <use transform="translate(557.519531 0.445312)" xlink:href="#DejaVuSerif-6f"/>
      <use transform="translate(617.724609 0.445312)" xlink:href="#DejaVuSerif-62"/>
      <use transform="translate(681.738281 0.445312)" xlink:href="#DejaVuSerif-61"/>
      <use transform="translate(741.357422 0.445312)" xlink:href="#DejaVuSerif-62"/>
      <use transform="translate(805.371094 0.445312)" xlink:href="#DejaVuSerif-69"/>
      <use transform="translate(837.353516 0.445312)" xlink:href="#DejaVuSerif-6c"/>
      <use transform="translate(869.335938 0.445312)" xlink:href="#DejaVuSerif-69"/>
      <use transform="translate(901.318359 0.445312)" xlink:href="#DejaVuSerif-74"/>
      <use transform="translate(941.503906 0.445312)" xlink:href="#DejaVuSerif-79"/>
      <use transform="translate(997.998047 0.445312)" xlink:href="#DejaVuSerif-20"/>
      <use transform="translate(1029.785156 -19.84375)scale(0.752117)" xlink:href="#STIXSizeTwoSym-Regular-5b"/>
      <use transform="translate(1078.324905 58.8)scale(0.7)" xlink:href="#DejaVuSans-Oblique-70"/>
      <use transform="translate(1064.324905 -26.207812)scale(0.7)" xlink:href="#DejaVuSans-Oblique-70"/>
      <use transform="translate(1108.758499 -37.692187)scale(0.49)" xlink:href="#DejaVuSans-Oblique-63"/>
      <use transform="translate(1150.112991 -19.84375)scale(0.752117)" xlink:href="#STIXSizeTwoSym-Regular-5d"/>
      <path d="M 1064.324905 19.242188 
L 1064.324905 25.492188 
L 1137.612991 25.492188 
L 1137.612991 19.242188 
L 1064.324905 19.242188 
z
"/>
     </g>
    </g>
   </g>
   <g id="matplotlib.axis_2">
    <g id="ytick_1">
     <g id="line2d_7">
      <defs>
       <path d="M 0 0 
L -3.5 0 
" id="m27b22b52d5" style="stroke:#000000;stroke-width:0.8;"/>
      </defs>
      <g>
       <use style="stroke:#000000;stroke-width:0.8;" x="55.2" xlink:href="#m27b22b52d5" y="333.867211"/>
      </g>
     </g>
     <g id="text_8">
      <!-- $\mathdefault{10^{-3}}$ -->
      <g transform="translate(24.8 337.66643)scale(0.1 -0.1)">
       <defs>
        <path d="M 678 2259 
L 4684 2259 
L 4684 1753 
L 678 1753 
L 678 2259 
z
" id="DejaVuSerif-2212" transform="scale(0.015625)"/>
        <path d="M 622 4469 
Q 988 4606 1323 4678 
Q 1659 4750 1953 4750 
Q 2638 4750 3022 4454 
Q 3406 4159 3406 3634 
Q 3406 3213 3140 2930 
Q 2875 2647 2388 2547 
Q 2963 2466 3280 2130 
Q 3597 1794 3597 1259 
Q 3597 606 3158 257 
Q 2719 -91 1894 -91 
Q 1528 -91 1179 -12 
Q 831 66 488 225 
L 488 1131 
L 838 1131 
Q 869 681 1141 450 
Q 1413 219 1906 219 
Q 2384 219 2661 495 
Q 2938 772 2938 1253 
Q 2938 1803 2653 2086 
Q 2369 2369 1819 2369 
L 1522 2369 
L 1522 2688 
L 1678 2688 
Q 2225 2688 2498 2914 
Q 2772 3141 2772 3597 
Q 2772 4006 2547 4223 
Q 2322 4441 1900 4441 
Q 1478 4441 1245 4241 
Q 1013 4041 972 3647 
L 622 3647 
L 622 4469 
z
" id="DejaVuSerif-33" transform="scale(0.015625)"/>
       </defs>
       <use transform="translate(0 0.7125)" xlink:href="#DejaVuSerif-31"/>
       <use transform="translate(63.623047 0.7125)" xlink:href="#DejaVuSerif-30"/>
       <use transform="translate(128.154453 37.046875)scale(0.7)" xlink:href="#DejaVuSerif-2212"/>
       <use transform="translate(186.806797 37.046875)scale(0.7)" xlink:href="#DejaVuSerif-33"/>
      </g>
     </g>
    </g>
    <g id="ytick_2">
     <g id="line2d_8">
      <g>
       <use style="stroke:#000000;stroke-width:0.8;" x="55.2" xlink:href="#m27b22b52d5" y="234.82073"/>
      </g>
     </g>
     <g id="text_9">
      <!-- $\mathdefault{10^{-2}}$ -->
      <g transform="translate(24.8 238.619949)scale(0.1 -0.1)">
       <use transform="translate(0 0.7125)" xlink:href="#DejaVuSerif-31"/>
       <use transform="translate(63.623047 0.7125)" xlink:href="#DejaVuSerif-30"/>
       <use transform="translate(128.154453 37.046875)scale(0.7)" xlink:href="#DejaVuSerif-2212"/>
       <use transform="translate(186.806797 37.046875)scale(0.7)" xlink:href="#DejaVuSerif-32"/>
      </g>
     </g>
    </g>
    <g id="ytick_3">
     <g id="line2d_9">
      <g>
       <use style="stroke:#000000;stroke-width:0.8;" x="55.2" xlink:href="#m27b22b52d5" y="135.77425"/>
      </g>
     </g>
     <g id="text_10">
      <!-- $\mathdefault{10^{-1}}$ -->
      <g transform="translate(24.8 139.573468)scale(0.1 -0.1)">
       <use transform="translate(0 0.7125)" xlink:href="#DejaVuSerif-31"/>
       <use transform="translate(63.623047 0.7125)" xlink:href="#DejaVuSerif-30"/>
       <use transform="translate(128.154453 37.046875)scale(0.7)" xlink:href="#DejaVuSerif-2212"/>
       <use transform="translate(186.806797 37.046875)scale(0.7)" xlink:href="#DejaVuSerif-31"/>
      </g>
     </g>
    </g>
    <g id="ytick_4">
     <g id="line2d_10">
      <g>
       <use style="stroke:#000000;stroke-width:0.8;" x="55.2" xlink:href="#m27b22b52d5" y="36.727769"/>
      </g>
     </g>
     <g id="text_11">
      <!-- $\mathdefault{10^{0}}$ -->
      <g transform="translate(30.6 40.526987)scale(0.1 -0.1)">
       <use transform="translate(0 0.7125)" xlink:href="#DejaVuSerif-31"/>
       <use transform="translate(63.623047 0.7125)" xlink:href="#DejaVuSerif-30"/>
       <use transform="translate(128.154453 37.046875)scale(0.7)" xlink:href="#DejaVuSerif-30"/>
      </g>
     </g>
    </g>
    <g id="ytick_5">
     <g id="line2d_11">
      <defs>
       <path d="M 0 0 
L -2 0 
" id="mcdad0a1d0b" style="stroke:#000000;stroke-width:0.6;"/>
      </defs>
      <g>
       <use style="stroke:#000000;stroke-width:0.6;" x="55.2" xlink:href="#mcdad0a1d0b" y="343.465807"/>
      </g>
     </g>
    </g>
    <g id="ytick_6">
     <g id="line2d_12">
      <g>
       <use style="stroke:#000000;stroke-width:0.6;" x="55.2" xlink:href="#mcdad0a1d0b" y="338.39933"/>
      </g>
     </g>
    </g>
    <g id="ytick_7">
     <g id="line2d_13">
      <g>
       <use style="stroke:#000000;stroke-width:0.6;" x="55.2" xlink:href="#mcdad0a1d0b" y="304.05125"/>
      </g>
     </g>
    </g>
    <g id="ytick_8">
     <g id="line2d_14">
      <g>
       <use style="stroke:#000000;stroke-width:0.6;" x="55.2" xlink:href="#mcdad0a1d0b" y="286.61003"/>
      </g>
     </g>
    </g>
    <g id="ytick_9">
     <g id="line2d_15">
      <g>
       <use style="stroke:#000000;stroke-width:0.6;" x="55.2" xlink:href="#mcdad0a1d0b" y="274.235288"/>
      </g>
     </g>
    </g>
    <g id="ytick_10">
     <g id="line2d_16">
      <g>
       <use style="stroke:#000000;stroke-width:0.6;" x="55.2" xlink:href="#mcdad0a1d0b" y="264.636692"/>
      </g>
     </g>
    </g>
    <g id="ytick_11">
     <g id="line2d_17">
      <g>
       <use style="stroke:#000000;stroke-width:0.6;" x="55.2" xlink:href="#mcdad0a1d0b" y="256.794068"/>
      </g>
     </g>
    </g>
    <g id="ytick_12">
     <g id="line2d_18">
      <g>
       <use style="stroke:#000000;stroke-width:0.6;" x="55.2" xlink:href="#mcdad0a1d0b" y="250.163224"/>
      </g>
     </g>
    </g>
    <g id="ytick_13">
     <g id="line2d_19">
      <g>
       <use style="stroke:#000000;stroke-width:0.6;" x="55.2" xlink:href="#mcdad0a1d0b" y="244.419326"/>
      </g>
     </g>
    </g>
    <g id="ytick_14">
     <g id="line2d_20">
      <g>
       <use style="stroke:#000000;stroke-width:0.6;" x="55.2" xlink:href="#mcdad0a1d0b" y="239.352849"/>
      </g>
     </g>
    </g>
    <g id="ytick_15">
     <g id="line2d_21">
      <g>
       <use style="stroke:#000000;stroke-width:0.6;" x="55.2" xlink:href="#mcdad0a1d0b" y="205.004769"/>
      </g>
     </g>
    </g>
    <g id="ytick_16">
     <g id="line2d_22">
      <g>
       <use style="stroke:#000000;stroke-width:0.6;" x="55.2" xlink:href="#mcdad0a1d0b" y="187.563549"/>
      </g>
     </g>
    </g>
    <g id="ytick_17">
     <g id="line2d_23">
      <g>
       <use style="stroke:#000000;stroke-width:0.6;" x="55.2" xlink:href="#mcdad0a1d0b" y="175.188807"/>
      </g>
     </g>
    </g>
    <g id="ytick_18">
     <g id="line2d_24">
      <g>
       <use style="stroke:#000000;stroke-width:0.6;" x="55.2" xlink:href="#mcdad0a1d0b" y="165.590211"/>
      </g>
     </g>
    </g>
    <g id="ytick_19">
     <g id="line2d_25">
      <g>
       <use style="stroke:#000000;stroke-width:0.6;" x="55.2" xlink:href="#mcdad0a1d0b" y="157.747587"/>
      </g>
     </g>
    </g>
    <g id="ytick_20">
     <g id="line2d_26">
      <g>
       <use style="stroke:#000000;stroke-width:0.6;" x="55.2" xlink:href="#mcdad0a1d0b" y="151.116744"/>
      </g>
     </g>
    </g>
    <g id="ytick_21">
     <g id="line2d_27">
      <g>
       <use style="stroke:#000000;stroke-width:0.6;" x="55.2" xlink:href="#mcdad0a1d0b" y="145.372845"/>
      </g>
     </g>
    </g>
    <g id="ytick_22">
     <g id="line2d_28">
      <g>
       <use style="stroke:#000000;stroke-width:0.6;" x="55.2" xlink:href="#mcdad0a1d0b" y="140.306368"/>
      </g>
     </g>
    </g>
    <g id="ytick_23">
     <g id="line2d_29">
      <g>
       <use style="stroke:#000000;stroke-width:0.6;" x="55.2" xlink:href="#mcdad0a1d0b" y="105.958288"/>
      </g>
     </g>
    </g>
    <g id="ytick_24">
     <g id="line2d_30">
      <g>
       <use style="stroke:#000000;stroke-width:0.6;" x="55.2" xlink:href="#mcdad0a1d0b" y="88.517068"/>
      </g>
     </g>
    </g>
    <g id="ytick_25">
     <g id="line2d_31">
      <g>
       <use style="stroke:#000000;stroke-width:0.6;" x="55.2" xlink:href="#mcdad0a1d0b" y="76.142326"/>
      </g>
     </g>
    </g>
    <g id="ytick_26">
     <g id="line2d_32">
      <g>
       <use style="stroke:#000000;stroke-width:0.6;" x="55.2" xlink:href="#mcdad0a1d0b" y="66.54373"/>
      </g>
     </g>
    </g>
    <g id="ytick_27">
     <g id="line2d_33">
      <g>
       <use style="stroke:#000000;stroke-width:0.6;" x="55.2" xlink:href="#mcdad0a1d0b" y="58.701107"/>
      </g>
     </g>
    </g>
    <g id="ytick_28">
     <g id="line2d_34">
      <g>
       <use style="stroke:#000000;stroke-width:0.6;" x="55.2" xlink:href="#mcdad0a1d0b" y="52.070263"/>
      </g>
     </g>
    </g>
    <g id="ytick_29">
     <g id="line2d_35">
      <g>
       <use style="stroke:#000000;stroke-width:0.6;" x="55.2" xlink:href="#mcdad0a1d0b" y="46.326364"/>
      </g>
     </g>
    </g>
    <g id="ytick_30">
     <g id="line2d_36">
      <g>
       <use style="stroke:#000000;stroke-width:0.6;" x="55.2" xlink:href="#mcdad0a1d0b" y="41.259887"/>
      </g>
     </g>
    </g>
    <g id="text_12">
     <!-- Relative number of ergodic sets $\left[\frac{ES}{N}\right]$ -->
     <g transform="translate(16.9 276.348125)rotate(-90)scale(0.1 -0.1)">
      <defs>
       <path d="M 263 0 
L 263 331 
L 781 331 
L 781 2988 
L 231 2988 
L 231 3322 
L 1356 3322 
L 1356 2731 
Q 1516 3069 1770 3241 
Q 2025 3413 2363 3413 
Q 2913 3413 3172 3097 
Q 3431 2781 3431 2113 
L 3431 331 
L 3944 331 
L 3944 0 
L 2356 0 
L 2356 331 
L 2853 331 
L 2853 1931 
Q 2853 2541 2703 2767 
Q 2553 2994 2175 2994 
Q 1775 2994 1565 2701 
Q 1356 2409 1356 1850 
L 1356 331 
L 1856 331 
L 1856 0 
L 263 0 
z
" id="DejaVuSerif-6e" transform="scale(0.015625)"/>
       <path d="M 2266 3322 
L 3341 3322 
L 3341 331 
L 3884 331 
L 3884 0 
L 2766 0 
L 2766 588 
Q 2606 256 2353 82 
Q 2100 -91 1766 -91 
Q 1213 -91 952 223 
Q 691 538 691 1209 
L 691 2988 
L 172 2988 
L 172 3322 
L 1269 3322 
L 1269 1388 
Q 1269 781 1417 556 
Q 1566 331 1947 331 
Q 2347 331 2556 625 
Q 2766 919 2766 1478 
L 2766 2988 
L 2266 2988 
L 2266 3322 
z
" id="DejaVuSerif-75" transform="scale(0.015625)"/>
       <path d="M 3316 2675 
Q 3481 3041 3739 3227 
Q 3997 3413 4341 3413 
Q 4863 3413 5119 3089 
Q 5375 2766 5375 2113 
L 5375 331 
L 5894 331 
L 5894 0 
L 4300 0 
L 4300 331 
L 4800 331 
L 4800 2047 
Q 4800 2556 4650 2772 
Q 4500 2988 4153 2988 
Q 3769 2988 3567 2697 
Q 3366 2406 3366 1850 
L 3366 331 
L 3866 331 
L 3866 0 
L 2291 0 
L 2291 331 
L 2791 331 
L 2791 2069 
Q 2791 2566 2641 2777 
Q 2491 2988 2144 2988 
Q 1759 2988 1557 2697 
Q 1356 2406 1356 1850 
L 1356 331 
L 1856 331 
L 1856 0 
L 263 0 
L 263 331 
L 781 331 
L 781 2994 
L 231 2994 
L 231 3322 
L 1356 3322 
L 1356 2731 
Q 1516 3063 1762 3238 
Q 2009 3413 2322 3413 
Q 2709 3413 2968 3220 
Q 3228 3028 3316 2675 
z
" id="DejaVuSerif-6d" transform="scale(0.015625)"/>
       <path d="M 2753 4078 
L 2450 4078 
Q 2447 4313 2317 4434 
Q 2188 4556 1941 4556 
Q 1619 4556 1487 4379 
Q 1356 4203 1356 3750 
L 1356 3322 
L 2284 3322 
L 2284 2988 
L 1356 2988 
L 1356 331 
L 2094 331 
L 2094 0 
L 231 0 
L 231 331 
L 781 331 
L 781 2988 
L 231 2988 
L 231 3322 
L 781 3322 
L 781 3738 
Q 781 4294 1070 4578 
Q 1359 4863 1919 4863 
Q 2128 4863 2337 4825 
Q 2547 4788 2753 4709 
L 2753 4078 
z
" id="DejaVuSerif-66" transform="scale(0.015625)"/>
       <path d="M 3359 2988 
L 3359 72 
Q 3359 -644 2965 -1033 
Q 2572 -1422 1844 -1422 
Q 1516 -1422 1216 -1362 
Q 916 -1303 641 -1184 
L 641 -488 
L 941 -488 
Q 997 -813 1206 -963 
Q 1416 -1113 1806 -1113 
Q 2313 -1113 2548 -827 
Q 2784 -541 2784 72 
L 2784 519 
Q 2616 206 2355 57 
Q 2094 -91 1709 -91 
Q 1097 -91 708 395 
Q 319 881 319 1663 
Q 319 2444 706 2928 
Q 1094 3413 1709 3413 
Q 2094 3413 2355 3264 
Q 2616 3116 2784 2803 
L 2784 3322 
L 3909 3322 
L 3909 2988 
L 3359 2988 
z
M 2784 1825 
Q 2784 2422 2554 2737 
Q 2325 3053 1888 3053 
Q 1444 3053 1217 2703 
Q 991 2353 991 1663 
Q 991 975 1217 622 
Q 1444 269 1888 269 
Q 2325 269 2554 583 
Q 2784 897 2784 1497 
L 2784 1825 
z
" id="DejaVuSerif-67" transform="scale(0.015625)"/>
       <path d="M 3359 331 
L 3909 331 
L 3909 0 
L 2784 0 
L 2784 519 
Q 2616 206 2355 57 
Q 2094 -91 1709 -91 
Q 1097 -91 708 395 
Q 319 881 319 1663 
Q 319 2444 706 2928 
Q 1094 3413 1709 3413 
Q 2094 3413 2355 3264 
Q 2616 3116 2784 2803 
L 2784 4531 
L 2241 4531 
L 2241 4863 
L 3359 4863 
L 3359 331 
z
M 2784 1497 
L 2784 1825 
Q 2784 2422 2554 2737 
Q 2325 3053 1888 3053 
Q 1444 3053 1217 2703 
Q 991 2353 991 1663 
Q 991 975 1217 622 
Q 1444 269 1888 269 
Q 2325 269 2554 583 
Q 2784 897 2784 1497 
z
" id="DejaVuSerif-64" transform="scale(0.015625)"/>
       <path d="M 3291 997 
Q 3169 466 2822 187 
Q 2475 -91 1925 -91 
Q 1200 -91 759 389 
Q 319 869 319 1663 
Q 319 2459 759 2936 
Q 1200 3413 1925 3413 
Q 2241 3413 2553 3339 
Q 2866 3266 3181 3116 
L 3181 2266 
L 2847 2266 
Q 2781 2703 2561 2903 
Q 2341 3103 1931 3103 
Q 1466 3103 1228 2742 
Q 991 2381 991 1663 
Q 991 944 1227 581 
Q 1463 219 1931 219 
Q 2303 219 2525 412 
Q 2747 606 2828 997 
L 3291 997 
z
" id="DejaVuSerif-63" transform="scale(0.015625)"/>
       <path d="M 359 184 
L 359 959 
L 691 959 
Q 703 588 923 403 
Q 1144 219 1575 219 
Q 1963 219 2166 364 
Q 2369 509 2369 788 
Q 2369 1006 2220 1140 
Q 2072 1275 1594 1428 
L 1178 1569 
Q 750 1706 558 1912 
Q 366 2119 366 2438 
Q 366 2894 700 3153 
Q 1034 3413 1625 3413 
Q 1888 3413 2178 3344 
Q 2469 3275 2778 3144 
L 2778 2419 
L 2447 2419 
Q 2434 2741 2221 2922 
Q 2009 3103 1644 3103 
Q 1281 3103 1095 2975 
Q 909 2847 909 2591 
Q 909 2381 1050 2254 
Q 1191 2128 1613 1997 
L 2069 1856 
Q 2541 1709 2748 1489 
Q 2956 1269 2956 922 
Q 2956 450 2595 179 
Q 2234 -91 1600 -91 
Q 1278 -91 972 -22 
Q 666 47 359 184 
z
" id="DejaVuSerif-73" transform="scale(0.015625)"/>
       <path d="M 1081 4666 
L 4031 4666 
L 3928 4134 
L 1606 4134 
L 1338 2753 
L 3566 2753 
L 3463 2222 
L 1234 2222 
L 909 531 
L 3284 531 
L 3181 0 
L 172 0 
L 1081 4666 
z
" id="DejaVuSans-Oblique-45" transform="scale(0.015625)"/>
       <path d="M 3859 4513 
L 3738 3897 
Q 3422 4066 3111 4152 
Q 2800 4238 2509 4238 
Q 1944 4238 1609 3991 
Q 1275 3744 1275 3334 
Q 1275 3109 1398 2989 
Q 1522 2869 2034 2731 
L 2413 2638 
Q 3053 2472 3303 2217 
Q 3553 1963 3553 1503 
Q 3553 797 2998 353 
Q 2444 -91 1538 -91 
Q 1166 -91 791 -17 
Q 416 56 38 206 
L 166 856 
Q 513 641 861 531 
Q 1209 422 1556 422 
Q 2147 422 2503 684 
Q 2859 947 2859 1369 
Q 2859 1650 2717 1795 
Q 2575 1941 2106 2059 
L 1728 2156 
Q 1081 2325 845 2545 
Q 609 2766 609 3163 
Q 609 3859 1145 4304 
Q 1681 4750 2541 4750 
Q 2875 4750 3203 4690 
Q 3531 4631 3859 4513 
z
" id="DejaVuSans-Oblique-53" transform="scale(0.015625)"/>
       <path d="M 1081 4666 
L 1931 4666 
L 3219 666 
L 4000 4666 
L 4616 4666 
L 3706 0 
L 2853 0 
L 1569 4025 
L 788 0 
L 172 0 
L 1081 4666 
z
" id="DejaVuSans-Oblique-4e" transform="scale(0.015625)"/>
      </defs>
      <use transform="translate(0 0.254688)" xlink:href="#DejaVuSerif-52"/>
      <use transform="translate(75.292969 0.254688)" xlink:href="#DejaVuSerif-65"/>
      <use transform="translate(134.472656 0.254688)" xlink:href="#DejaVuSerif-6c"/>
      <use transform="translate(166.455078 0.254688)" xlink:href="#DejaVuSerif-61"/>
      <use transform="translate(226.074219 0.254688)" xlink:href="#DejaVuSerif-74"/>
      <use transform="translate(266.259766 0.254688)" xlink:href="#DejaVuSerif-69"/>
      <use transform="translate(298.242188 0.254688)" xlink:href="#DejaVuSerif-76"/>
      <use transform="translate(354.736328 0.254688)" xlink:href="#DejaVuSerif-65"/>
      <use transform="translate(413.916016 0.254688)" xlink:href="#DejaVuSerif-20"/>
      <use transform="translate(445.703125 0.254688)" xlink:href="#DejaVuSerif-6e"/>
      <use transform="translate(510.107422 0.254688)" xlink:href="#DejaVuSerif-75"/>
      <use transform="translate(574.511719 0.254688)" xlink:href="#DejaVuSerif-6d"/>
      <use transform="translate(669.335938 0.254688)" xlink:href="#DejaVuSerif-62"/>
      <use transform="translate(733.349609 0.254688)" xlink:href="#DejaVuSerif-65"/>
      <use transform="translate(792.529297 0.254688)" xlink:href="#DejaVuSerif-72"/>
      <use transform="translate(840.332031 0.254688)" xlink:href="#DejaVuSerif-20"/>
      <use transform="translate(872.119141 0.254688)" xlink:href="#DejaVuSerif-6f"/>
      <use transform="translate(932.324219 0.254688)" xlink:href="#DejaVuSerif-66"/>
      <use transform="translate(969.335938 0.254688)" xlink:href="#DejaVuSerif-20"/>
      <use transform="translate(1001.123047 0.254688)" xlink:href="#DejaVuSerif-65"/>
      <use transform="translate(1060.302734 0.254688)" xlink:href="#DejaVuSerif-72"/>
      <use transform="translate(1108.105469 0.254688)" xlink:href="#DejaVuSerif-67"/>
      <use transform="translate(1172.119141 0.254688)" xlink:href="#DejaVuSerif-6f"/>
      <use transform="translate(1232.324219 0.254688)" xlink:href="#DejaVuSerif-64"/>
      <use transform="translate(1296.337891 0.254688)" xlink:href="#DejaVuSerif-69"/>
      <use transform="translate(1328.320312 0.254688)" xlink:href="#DejaVuSerif-63"/>
      <use transform="translate(1384.326172 0.254688)" xlink:href="#DejaVuSerif-20"/>
      <use transform="translate(1416.113281 0.254688)" xlink:href="#DejaVuSerif-73"/>
      <use transform="translate(1467.431641 0.254688)" xlink:href="#DejaVuSerif-65"/>
      <use transform="translate(1526.611328 0.254688)" xlink:href="#DejaVuSerif-74"/>
      <use transform="translate(1566.796875 0.254688)" xlink:href="#DejaVuSerif-73"/>
      <use transform="translate(1618.115234 0.254688)" xlink:href="#DejaVuSerif-20"/>
      <use transform="translate(1649.902344 -17.873437)scale(0.732969)" xlink:href="#STIXSizeTwoSym-Regular-5b"/>
      <use transform="translate(1683.524078 45.046875)scale(0.7)" xlink:href="#DejaVuSans-Oblique-45"/>
      <use transform="translate(1727.752594 45.046875)scale(0.7)" xlink:href="#DejaVuSans-Oblique-53"/>
      <use transform="translate(1701.524078 -38.232812)scale(0.7)" xlink:href="#DejaVuSans-Oblique-4e"/>
      <use transform="translate(1784.686188 -17.873437)scale(0.732969)" xlink:href="#STIXSizeTwoSym-Regular-5d"/>
      <path d="M 1683.524078 19.051563 
L 1683.524078 25.301563 
L 1772.186188 25.301563 
L 1772.186188 19.051563 
L 1683.524078 19.051563 
z
"/>
     </g>
    </g>
   </g>
   <g id="line2d_37">
    <path clip-path="url(#p3c427d1d00)" d="M 75.490909 37.14358 
L 92.4 54.266313 
L 109.309091 71.104535 
L 126.218182 88.120295 
L 143.127273 105.060107 
L 160.036364 122.884271 
L 176.945455 141.356224 
L 193.854545 157.128344 
L 210.763636 175.221081 
L 227.672727 192.447599 
L 244.581818 207.780915 
L 261.490909 217.753935 
L 278.4 226.302366 
L 295.309091 230.603776 
L 312.218182 232.314274 
L 329.127273 233.884652 
L 346.036364 234.180292 
L 362.945455 234.82073 
L 379.854545 234.734786 
L 396.763636 234.734786 
L 413.672727 234.777737 
L 430.581818 234.82073 
L 447.490909 234.82073 
L 464.4 234.82073 
L 481.309091 234.777737 
" style="fill:none;stroke:#1f77b4;stroke-linecap:square;stroke-width:1.5;"/>
   </g>
   <g id="line2d_38">
    <path clip-path="url(#p3c427d1d00)" d="M 75.490909 37.166171 
L 92.4 54.297581 
L 109.309091 71.432599 
L 126.218182 88.746617 
L 143.127273 106.222928 
L 160.036364 123.156085 
L 176.945455 140.685614 
L 193.854545 157.336136 
L 210.763636 175.919062 
L 227.672727 192.442245 
L 244.581818 210.422173 
L 261.490909 227.543394 
L 278.4 244.133509 
L 295.309091 256.937692 
L 312.218182 266.903505 
L 329.127273 274.163655 
L 346.036364 278.174082 
L 362.945455 280.102263 
L 379.854545 281.437473 
L 396.763636 281.522316 
L 413.672727 281.820591 
L 430.581818 281.991967 
L 447.490909 282.034918 
L 464.4 282.077912 
L 481.309091 282.077912 
" style="fill:none;stroke:#ff7f0e;stroke-linecap:square;stroke-width:1.5;"/>
   </g>
   <g id="line2d_39">
    <path clip-path="url(#p3c427d1d00)" d="M 75.490909 37.151941 
L 92.4 54.390171 
L 109.309091 71.557439 
L 126.218182 88.80985 
L 143.127273 106.054643 
L 160.036364 123.30149 
L 176.945455 140.2085 
L 193.854545 157.831908 
L 210.763636 174.859391 
L 227.672727 192.247285 
L 244.581818 208.568085 
L 261.490909 226.029754 
L 278.4 244.783808 
L 295.309091 259.398497 
L 312.218182 272.599928 
L 329.127273 280.473621 
L 346.036364 288.179707 
L 362.945455 291.30176 
L 379.854545 292.848363 
L 396.763636 293.769856 
L 413.672727 294.323801 
L 430.581818 294.195333 
L 447.490909 294.40966 
L 464.4 294.40966 
L 481.309091 294.452654 
" style="fill:none;stroke:#2ca02c;stroke-linecap:square;stroke-width:1.5;"/>
   </g>
   <g id="line2d_40">
    <path clip-path="url(#p3c427d1d00)" d="M 75.490909 37.155047 
L 92.4 54.299954 
L 109.309091 71.395731 
L 126.218182 88.708194 
L 143.127273 105.780144 
L 160.036364 123.267867 
L 176.945455 140.62105 
L 193.854545 157.047858 
L 210.763636 174.675695 
L 227.672727 192.216919 
L 244.581818 209.151481 
L 261.490909 227.107347 
L 278.4 243.588601 
L 295.309091 260.756439 
L 312.218182 272.672458 
L 329.127273 288.27648 
L 346.036364 294.62506 
L 362.945455 299.407436 
L 379.854545 301.18111 
L 396.763636 302.82155 
L 413.672727 303.538138 
L 430.581818 303.836709 
L 447.490909 303.965305 
L 464.4 304.05125 
L 481.309091 304.05125 
" style="fill:none;stroke:#d62728;stroke-linecap:square;stroke-width:1.5;"/>
   </g>
   <g id="line2d_41">
    <path clip-path="url(#p3c427d1d00)" d="M 75.490909 37.159291 
L 92.4 54.353057 
L 109.309091 71.44722 
L 126.218182 88.902824 
L 143.127273 106.100473 
L 160.036364 123.063155 
L 176.945455 140.155283 
L 193.854545 157.638991 
L 210.763636 174.862059 
L 227.672727 192.356674 
L 244.581818 210.568789 
L 261.490909 226.302366 
L 278.4 243.365909 
L 295.309091 260.432739 
L 312.218182 276.253435 
L 329.127273 291.30176 
L 346.036364 298.383592 
L 362.945455 305.103554 
L 379.854545 308.464047 
L 396.763636 310.664174 
L 413.672727 310.957795 
L 430.581818 311.636552 
L 447.490909 311.807929 
L 464.4 311.807929 
L 481.309091 311.807929 
" style="fill:none;stroke:#9467bd;stroke-linecap:square;stroke-width:1.5;"/>
   </g>
   <g id="line2d_42">
    <path clip-path="url(#p3c427d1d00)" d="M 75.490909 37.15357 
L 92.4 54.344726 
L 109.309091 71.541423 
L 126.218182 88.829137 
L 143.127273 105.974575 
L 160.036364 123.026588 
L 176.945455 140.541202 
L 193.854545 157.747587 
L 210.763636 175.004849 
L 227.672727 192.326154 
L 244.581818 209.738781 
L 261.490909 226.926928 
L 278.4 243.9685 
L 295.309091 261.189846 
L 312.218182 277.109868 
L 329.127273 290.983127 
L 346.036364 303.199433 
L 362.945455 309.795148 
L 379.854545 314.620887 
L 396.763636 316.466978 
L 413.672727 317.715093 
L 430.581818 318.181964 
L 447.490909 318.395864 
L 464.4 318.352999 
L 481.309091 318.481723 
" style="fill:none;stroke:#8c564b;stroke-linecap:square;stroke-width:1.5;"/>
   </g>
   <g id="line2d_43">
    <path clip-path="url(#p3c427d1d00)" d="M 75.490909 37.160359 
L 92.4 54.309987 
L 109.309091 71.542096 
L 126.218182 88.689295 
L 143.127273 105.979532 
L 160.036364 123.267304 
L 176.945455 140.268149 
L 193.854545 157.845379 
L 210.763636 174.768776 
L 227.672727 192.343319 
L 244.581818 209.05862 
L 261.490909 226.073607 
L 278.4 244.017936 
L 295.309091 261.847105 
L 312.218182 278.351221 
L 329.127273 292.027435 
L 346.036364 305.47247 
L 362.945455 312.228541 
L 379.854545 318.294129 
L 396.763636 321.037842 
L 413.672727 322.997134 
L 430.581818 323.416799 
L 447.490909 324.096897 
L 464.4 324.139763 
L 481.309091 324.182671 
" style="fill:none;stroke:#e377c2;stroke-linecap:square;stroke-width:1.5;"/>
   </g>
   <g id="line2d_44">
    <path clip-path="url(#p3c427d1d00)" d="M 75.490909 37.152171 
L 92.4 54.331966 
L 109.309091 71.521902 
L 126.218182 88.796298 
L 143.127273 106.038419 
L 160.036364 123.129361 
L 176.945455 140.380248 
L 193.854545 157.88322 
L 210.763636 175.02185 
L 227.672727 192.506535 
L 244.581818 209.024825 
L 261.490909 225.698892 
L 278.4 243.655457 
L 295.309091 262.040151 
L 312.218182 278.292094 
L 329.127273 292.000338 
L 346.036364 305.782336 
L 362.945455 316.553634 
L 379.854545 322.876655 
L 396.763636 326.144241 
L 413.672727 328.105394 
L 430.581818 328.737055 
L 447.490909 329.077772 
L 464.4 329.163375 
L 481.309091 329.20624 
" style="fill:none;stroke:#7f7f7f;stroke-linecap:square;stroke-width:1.5;"/>
   </g>
   <g id="line2d_45">
    <path clip-path="url(#p3c427d1d00)" d="M 75.490909 37.156134 
L 92.4 54.329865 
L 109.309091 71.52188 
L 126.218182 88.749116 
L 143.127273 105.791069 
L 160.036364 123.058354 
L 176.945455 140.683203 
L 193.854545 157.481003 
L 210.763636 174.74908 
L 227.672727 191.732372 
L 244.581818 209.877576 
L 261.490909 227.107347 
L 278.4 243.54116 
L 295.309091 261.710255 
L 312.218182 278.49346 
L 329.127273 294.573266 
L 346.036364 308.895162 
L 362.945455 319.486018 
L 379.854545 324.962426 
L 396.763636 330.397684 
L 413.672727 332.26292 
L 430.581818 333.184414 
L 447.490909 333.226773 
L 464.4 333.567153 
L 481.309091 333.65267 
" style="fill:none;stroke:#bcbd22;stroke-linecap:square;stroke-width:1.5;"/>
   </g>
   <g id="patch_3">
    <path d="M 55.2 348.478125 
L 55.2 22.318125 
" style="fill:none;stroke:#000000;stroke-linecap:square;stroke-linejoin:miter;stroke-width:0.8;"/>
   </g>
   <g id="patch_4">
    <path d="M 501.6 348.478125 
L 501.6 22.318125 
" style="fill:none;stroke:#000000;stroke-linecap:square;stroke-linejoin:miter;stroke-width:0.8;"/>
   </g>
   <g id="patch_5">
    <path d="M 55.2 348.478125 
L 501.6 348.478125 
" style="fill:none;stroke:#000000;stroke-linecap:square;stroke-linejoin:miter;stroke-width:0.8;"/>
   </g>
   <g id="patch_6">
    <path d="M 55.2 22.318125 
L 501.6 22.318125 
" style="fill:none;stroke:#000000;stroke-linecap:square;stroke-linejoin:miter;stroke-width:0.8;"/>
   </g>
   <g id="text_13">
    <!-- Average number of ergodic sets for ER graphs -->
    <g transform="translate(136.887187 16.318125)scale(0.12 -0.12)">
     <defs>
      <path d="M 1281 1691 
L 2994 1691 
L 2138 3909 
L 1281 1691 
z
M -38 0 
L -38 331 
L 372 331 
L 2034 4666 
L 2559 4666 
L 4225 331 
L 4684 331 
L 4684 0 
L 2988 0 
L 2988 331 
L 3506 331 
L 3116 1356 
L 1153 1356 
L 763 331 
L 1275 331 
L 1275 0 
L -38 0 
z
" id="DejaVuSerif-41" transform="scale(0.015625)"/>
      <path d="M 353 0 
L 353 331 
L 947 331 
L 947 4331 
L 353 4331 
L 353 4666 
L 4109 4666 
L 4109 3628 
L 3725 3628 
L 3725 4281 
L 1581 4281 
L 1581 2719 
L 3109 2719 
L 3109 3303 
L 3494 3303 
L 3494 1753 
L 3109 1753 
L 3109 2338 
L 1581 2338 
L 1581 384 
L 3775 384 
L 3775 1038 
L 4159 1038 
L 4159 0 
L 353 0 
z
" id="DejaVuSerif-45" transform="scale(0.015625)"/>
      <path d="M 263 0 
L 263 331 
L 781 331 
L 781 4531 
L 231 4531 
L 231 4863 
L 1356 4863 
L 1356 2731 
Q 1516 3069 1770 3241 
Q 2025 3413 2363 3413 
Q 2913 3413 3172 3097 
Q 3431 2781 3431 2113 
L 3431 331 
L 3944 331 
L 3944 0 
L 2356 0 
L 2356 331 
L 2853 331 
L 2853 1931 
Q 2853 2541 2704 2764 
Q 2556 2988 2175 2988 
Q 1775 2988 1565 2697 
Q 1356 2406 1356 1850 
L 1356 331 
L 1856 331 
L 1856 0 
L 263 0 
z
" id="DejaVuSerif-68" transform="scale(0.015625)"/>
     </defs>
     <use xlink:href="#DejaVuSerif-41"/>
     <use x="68.216797" xlink:href="#DejaVuSerif-76"/>
     <use x="124.710938" xlink:href="#DejaVuSerif-65"/>
     <use x="183.890625" xlink:href="#DejaVuSerif-72"/>
     <use x="231.693359" xlink:href="#DejaVuSerif-61"/>
     <use x="291.3125" xlink:href="#DejaVuSerif-67"/>
     <use x="355.326172" xlink:href="#DejaVuSerif-65"/>
     <use x="414.505859" xlink:href="#DejaVuSerif-20"/>
     <use x="446.292969" xlink:href="#DejaVuSerif-6e"/>
     <use x="510.697266" xlink:href="#DejaVuSerif-75"/>
     <use x="575.101562" xlink:href="#DejaVuSerif-6d"/>
     <use x="669.925781" xlink:href="#DejaVuSerif-62"/>
     <use x="733.939453" xlink:href="#DejaVuSerif-65"/>
     <use x="793.119141" xlink:href="#DejaVuSerif-72"/>
     <use x="840.921875" xlink:href="#DejaVuSerif-20"/>
     <use x="872.708984" xlink:href="#DejaVuSerif-6f"/>
     <use x="932.914062" xlink:href="#DejaVuSerif-66"/>
     <use x="969.925781" xlink:href="#DejaVuSerif-20"/>
     <use x="1001.712891" xlink:href="#DejaVuSerif-65"/>
     <use x="1060.892578" xlink:href="#DejaVuSerif-72"/>
     <use x="1108.695312" xlink:href="#DejaVuSerif-67"/>
     <use x="1172.708984" xlink:href="#DejaVuSerif-6f"/>
     <use x="1232.914062" xlink:href="#DejaVuSerif-64"/>
     <use x="1296.927734" xlink:href="#DejaVuSerif-69"/>
     <use x="1328.910156" xlink:href="#DejaVuSerif-63"/>
     <use x="1384.916016" xlink:href="#DejaVuSerif-20"/>
     <use x="1416.703125" xlink:href="#DejaVuSerif-73"/>
     <use x="1468.021484" xlink:href="#DejaVuSerif-65"/>
     <use x="1527.201172" xlink:href="#DejaVuSerif-74"/>
     <use x="1567.386719" xlink:href="#DejaVuSerif-73"/>
     <use x="1618.705078" xlink:href="#DejaVuSerif-20"/>
     <use x="1650.492188" xlink:href="#DejaVuSerif-66"/>
     <use x="1687.503906" xlink:href="#DejaVuSerif-6f"/>
     <use x="1747.708984" xlink:href="#DejaVuSerif-72"/>
     <use x="1795.511719" xlink:href="#DejaVuSerif-20"/>
     <use x="1827.298828" xlink:href="#DejaVuSerif-45"/>
     <use x="1900.296875" xlink:href="#DejaVuSerif-52"/>
     <use x="1975.589844" xlink:href="#DejaVuSerif-20"/>
     <use x="2007.376953" xlink:href="#DejaVuSerif-67"/>
     <use x="2071.390625" xlink:href="#DejaVuSerif-72"/>
     <use x="2119.193359" xlink:href="#DejaVuSerif-61"/>
     <use x="2178.8125" xlink:href="#DejaVuSerif-70"/>
     <use x="2242.826172" xlink:href="#DejaVuSerif-68"/>
     <use x="2307.230469" xlink:href="#DejaVuSerif-73"/>
    </g>
   </g>
   <g id="legend_1">
    <g id="patch_7">
     <path d="M 437.15 162.42125 
L 494.6 162.42125 
Q 496.6 162.42125 496.6 160.42125 
L 496.6 29.318125 
Q 496.6 27.318125 494.6 27.318125 
L 437.15 27.318125 
Q 435.15 27.318125 435.15 29.318125 
L 435.15 160.42125 
Q 435.15 162.42125 437.15 162.42125 
z
" style="fill:#ffffff;opacity:0.8;stroke:#cccccc;stroke-linejoin:miter;"/>
    </g>
    <g id="line2d_46">
     <path d="M 439.15 35.416562 
L 459.15 35.416562 
" style="fill:none;stroke:#1f77b4;stroke-linecap:square;stroke-width:1.5;"/>
    </g>
    <g id="line2d_47"/>
    <g id="text_14">
     <!-- 100 -->
     <g transform="translate(467.15 38.916562)scale(0.1 -0.1)">
      <use xlink:href="#DejaVuSerif-31"/>
      <use x="63.623047" xlink:href="#DejaVuSerif-30"/>
      <use x="127.246094" xlink:href="#DejaVuSerif-30"/>
     </g>
    </g>
    <g id="line2d_48">
     <path d="M 439.15 50.094688 
L 459.15 50.094688 
" style="fill:none;stroke:#ff7f0e;stroke-linecap:square;stroke-width:1.5;"/>
    </g>
    <g id="line2d_49"/>
    <g id="text_15">
     <!-- 300 -->
     <g transform="translate(467.15 53.594688)scale(0.1 -0.1)">
      <use xlink:href="#DejaVuSerif-33"/>
      <use x="63.623047" xlink:href="#DejaVuSerif-30"/>
      <use x="127.246094" xlink:href="#DejaVuSerif-30"/>
     </g>
    </g>
    <g id="line2d_50">
     <path d="M 439.15 64.772812 
L 459.15 64.772812 
" style="fill:none;stroke:#2ca02c;stroke-linecap:square;stroke-width:1.5;"/>
    </g>
    <g id="line2d_51"/>
    <g id="text_16">
     <!-- 400 -->
     <g transform="translate(467.15 68.272812)scale(0.1 -0.1)">
      <use xlink:href="#DejaVuSerif-34"/>
      <use x="63.623047" xlink:href="#DejaVuSerif-30"/>
      <use x="127.246094" xlink:href="#DejaVuSerif-30"/>
     </g>
    </g>
    <g id="line2d_52">
     <path d="M 439.15 79.450938 
L 459.15 79.450938 
" style="fill:none;stroke:#d62728;stroke-linecap:square;stroke-width:1.5;"/>
    </g>
    <g id="line2d_53"/>
    <g id="text_17">
     <!-- 500 -->
     <g transform="translate(467.15 82.950938)scale(0.1 -0.1)">
      <defs>
       <path d="M 3219 4666 
L 3219 4153 
L 1081 4153 
L 1081 2816 
Q 1244 2928 1461 2984 
Q 1678 3041 1947 3041 
Q 2703 3041 3140 2622 
Q 3578 2203 3578 1478 
Q 3578 738 3136 323 
Q 2694 -91 1894 -91 
Q 1572 -91 1234 -12 
Q 897 66 544 225 
L 544 1131 
L 897 1131 
Q 925 688 1179 453 
Q 1434 219 1894 219 
Q 2388 219 2653 544 
Q 2919 869 2919 1478 
Q 2919 2084 2655 2407 
Q 2391 2731 1894 2731 
Q 1613 2731 1398 2631 
Q 1184 2531 1019 2322 
L 750 2322 
L 750 4666 
L 3219 4666 
z
" id="DejaVuSerif-35" transform="scale(0.015625)"/>
      </defs>
      <use xlink:href="#DejaVuSerif-35"/>
      <use x="63.623047" xlink:href="#DejaVuSerif-30"/>
      <use x="127.246094" xlink:href="#DejaVuSerif-30"/>
     </g>
    </g>
    <g id="line2d_54">
     <path d="M 439.15 94.129063 
L 459.15 94.129063 
" style="fill:none;stroke:#9467bd;stroke-linecap:square;stroke-width:1.5;"/>
    </g>
    <g id="line2d_55"/>
    <g id="text_18">
     <!-- 600 -->
     <g transform="translate(467.15 97.629063)scale(0.1 -0.1)">
      <use xlink:href="#DejaVuSerif-36"/>
      <use x="63.623047" xlink:href="#DejaVuSerif-30"/>
      <use x="127.246094" xlink:href="#DejaVuSerif-30"/>
     </g>
    </g>
    <g id="line2d_56">
     <path d="M 439.15 108.807187 
L 459.15 108.807187 
" style="fill:none;stroke:#8c564b;stroke-linecap:square;stroke-width:1.5;"/>
    </g>
    <g id="line2d_57"/>
    <g id="text_19">
     <!-- 700 -->
     <g transform="translate(467.15 112.307187)scale(0.1 -0.1)">
      <defs>
       <path d="M 3609 4347 
L 1784 0 
L 1319 0 
L 3059 4153 
L 903 4153 
L 903 3578 
L 538 3578 
L 538 4666 
L 3609 4666 
L 3609 4347 
z
" id="DejaVuSerif-37" transform="scale(0.015625)"/>
      </defs>
      <use xlink:href="#DejaVuSerif-37"/>
      <use x="63.623047" xlink:href="#DejaVuSerif-30"/>
      <use x="127.246094" xlink:href="#DejaVuSerif-30"/>
     </g>
    </g>
    <g id="line2d_58">
     <path d="M 439.15 123.485312 
L 459.15 123.485312 
" style="fill:none;stroke:#e377c2;stroke-linecap:square;stroke-width:1.5;"/>
    </g>
    <g id="line2d_59"/>
    <g id="text_20">
     <!-- 800 -->
     <g transform="translate(467.15 126.985312)scale(0.1 -0.1)">
      <use xlink:href="#DejaVuSerif-38"/>
      <use x="63.623047" xlink:href="#DejaVuSerif-30"/>
      <use x="127.246094" xlink:href="#DejaVuSerif-30"/>
     </g>
    </g>
    <g id="line2d_60">
     <path d="M 439.15 138.163437 
L 459.15 138.163437 
" style="fill:none;stroke:#7f7f7f;stroke-linecap:square;stroke-width:1.5;"/>
    </g>
    <g id="line2d_61"/>
    <g id="text_21">
     <!-- 900 -->
     <g transform="translate(467.15 141.663437)scale(0.1 -0.1)">
      <defs>
       <path d="M 2994 2091 
Q 2784 1856 2512 1740 
Q 2241 1625 1900 1625 
Q 1206 1625 804 2044 
Q 403 2463 403 3188 
Q 403 3897 839 4323 
Q 1275 4750 2003 4750 
Q 2794 4750 3217 4161 
Q 3641 3572 3641 2478 
Q 3641 1253 3137 581 
Q 2634 -91 1722 -91 
Q 1475 -91 1203 -44 
Q 931 3 647 97 
L 647 872 
L 997 872 
Q 1038 556 1241 387 
Q 1444 219 1784 219 
Q 2391 219 2687 676 
Q 2984 1134 2994 2091 
z
M 1978 4441 
Q 1534 4441 1298 4117 
Q 1063 3794 1063 3188 
Q 1063 2581 1298 2256 
Q 1534 1931 1978 1931 
Q 2422 1931 2658 2245 
Q 2894 2559 2894 3150 
Q 2894 3772 2656 4106 
Q 2419 4441 1978 4441 
z
" id="DejaVuSerif-39" transform="scale(0.015625)"/>
      </defs>
      <use xlink:href="#DejaVuSerif-39"/>
      <use x="63.623047" xlink:href="#DejaVuSerif-30"/>
      <use x="127.246094" xlink:href="#DejaVuSerif-30"/>
     </g>
    </g>
    <g id="line2d_62">
     <path d="M 439.15 152.841562 
L 459.15 152.841562 
" style="fill:none;stroke:#bcbd22;stroke-linecap:square;stroke-width:1.5;"/>
    </g>
    <g id="line2d_63"/>
    <g id="text_22">
     <!-- 1000 -->
     <g transform="translate(467.15 156.341562)scale(0.1 -0.1)">
      <use xlink:href="#DejaVuSerif-31"/>
      <use x="63.623047" xlink:href="#DejaVuSerif-30"/>
      <use x="127.246094" xlink:href="#DejaVuSerif-30"/>
      <use x="190.869141" xlink:href="#DejaVuSerif-30"/>
     </g>
    </g>
   </g>
  </g>
 </g>
 <defs>
  <clipPath id="p3c427d1d00">
   <rect height="326.16" width="446.4" x="55.2" y="22.318125"/>
  </clipPath>
 </defs>
</svg>
