<?xml version="1.0" encoding="utf-8" standalone="no"?>
<!DOCTYPE svg PUBLIC "-//W3C//DTD SVG 1.1//EN"
  "http://www.w3.org/Graphics/SVG/1.1/DTD/svg11.dtd">
<svg height="288pt" version="1.1" viewBox="0 0 432 288" width="432pt" xmlns="http://www.w3.org/2000/svg" xmlns:xlink="http://www.w3.org/1999/xlink">
 <metadata>
  <rdf:RDF xmlns:cc="http://creativecommons.org/ns#" xmlns:dc="http://purl.org/dc/elements/1.1/" xmlns:rdf="http://www.w3.org/1999/02/22-rdf-syntax-ns#">
   <cc:Work>
    <dc:type rdf:resource="http://purl.org/dc/dcmitype/StillImage"/>
    <dc:date>2021-07-02T10:50:52.698724</dc:date>
    <dc:format>image/svg+xml</dc:format>
    <dc:creator>
     <cc:Agent>
      <dc:title>Matplotlib v3.4.2, https://matplotlib.org/</dc:title>
     </cc:Agent>
    </dc:creator>
   </cc:Work>
  </rdf:RDF>
 </metadata>
 <defs>
  <style type="text/css">*{stroke-linecap:butt;stroke-linejoin:round;}</style>
 </defs>
 <g id="figure_1">
  <g id="patch_1">
   <path d="M 0 288 
L 432 288 
L 432 0 
L 0 0 
z
" style="fill:#ffffff;"/>
  </g>
  <g id="axes_1">
   <g id="patch_2">
    <path d="M 42.291719 245.29375 
L 421.2 245.29375 
L 421.2 26.8 
L 42.291719 26.8 
z
" style="fill:#ffffff;"/>
   </g>
   <g id="matplotlib.axis_1">
    <g id="xtick_1">
     <g id="line2d_1">
      <defs>
       <path d="M 0 0 
L 0 3.5 
" id="m3138772b10" style="stroke:#000000;stroke-width:0.8;"/>
      </defs>
      <g>
       <use style="stroke:#000000;stroke-width:0.8;" x="59.166881" xlink:href="#m3138772b10" y="245.29375"/>
      </g>
     </g>
     <g id="text_1">
      <!-- 0 -->
      <g transform="translate(55.985631 259.892187)scale(0.1 -0.1)">
       <defs>
        <path d="M 2034 4250 
Q 1547 4250 1301 3770 
Q 1056 3291 1056 2328 
Q 1056 1369 1301 889 
Q 1547 409 2034 409 
Q 2525 409 2770 889 
Q 3016 1369 3016 2328 
Q 3016 3291 2770 3770 
Q 2525 4250 2034 4250 
z
M 2034 4750 
Q 2819 4750 3233 4129 
Q 3647 3509 3647 2328 
Q 3647 1150 3233 529 
Q 2819 -91 2034 -91 
Q 1250 -91 836 529 
Q 422 1150 422 2328 
Q 422 3509 836 4129 
Q 1250 4750 2034 4750 
z
" id="DejaVuSans-30" transform="scale(0.015625)"/>
       </defs>
       <use xlink:href="#DejaVuSans-30"/>
      </g>
     </g>
    </g>
    <g id="xtick_2">
     <g id="line2d_2">
      <g>
       <use style="stroke:#000000;stroke-width:0.8;" x="128.755179" xlink:href="#m3138772b10" y="245.29375"/>
      </g>
     </g>
     <g id="text_2">
      <!-- 2 -->
      <g transform="translate(125.573929 259.892187)scale(0.1 -0.1)">
       <defs>
        <path d="M 1228 531 
L 3431 531 
L 3431 0 
L 469 0 
L 469 531 
Q 828 903 1448 1529 
Q 2069 2156 2228 2338 
Q 2531 2678 2651 2914 
Q 2772 3150 2772 3378 
Q 2772 3750 2511 3984 
Q 2250 4219 1831 4219 
Q 1534 4219 1204 4116 
Q 875 4013 500 3803 
L 500 4441 
Q 881 4594 1212 4672 
Q 1544 4750 1819 4750 
Q 2544 4750 2975 4387 
Q 3406 4025 3406 3419 
Q 3406 3131 3298 2873 
Q 3191 2616 2906 2266 
Q 2828 2175 2409 1742 
Q 1991 1309 1228 531 
z
" id="DejaVuSans-32" transform="scale(0.015625)"/>
       </defs>
       <use xlink:href="#DejaVuSans-32"/>
      </g>
     </g>
    </g>
    <g id="xtick_3">
     <g id="line2d_3">
      <g>
       <use style="stroke:#000000;stroke-width:0.8;" x="198.343476" xlink:href="#m3138772b10" y="245.29375"/>
      </g>
     </g>
     <g id="text_3">
      <!-- 4 -->
      <g transform="translate(195.162226 259.892187)scale(0.1 -0.1)">
       <defs>
        <path d="M 2419 4116 
L 825 1625 
L 2419 1625 
L 2419 4116 
z
M 2253 4666 
L 3047 4666 
L 3047 1625 
L 3713 1625 
L 3713 1100 
L 3047 1100 
L 3047 0 
L 2419 0 
L 2419 1100 
L 313 1100 
L 313 1709 
L 2253 4666 
z
" id="DejaVuSans-34" transform="scale(0.015625)"/>
       </defs>
       <use xlink:href="#DejaVuSans-34"/>
      </g>
     </g>
    </g>
    <g id="xtick_4">
     <g id="line2d_4">
      <g>
       <use style="stroke:#000000;stroke-width:0.8;" x="267.931774" xlink:href="#m3138772b10" y="245.29375"/>
      </g>
     </g>
     <g id="text_4">
      <!-- 6 -->
      <g transform="translate(264.750524 259.892187)scale(0.1 -0.1)">
       <defs>
        <path d="M 2113 2584 
Q 1688 2584 1439 2293 
Q 1191 2003 1191 1497 
Q 1191 994 1439 701 
Q 1688 409 2113 409 
Q 2538 409 2786 701 
Q 3034 994 3034 1497 
Q 3034 2003 2786 2293 
Q 2538 2584 2113 2584 
z
M 3366 4563 
L 3366 3988 
Q 3128 4100 2886 4159 
Q 2644 4219 2406 4219 
Q 1781 4219 1451 3797 
Q 1122 3375 1075 2522 
Q 1259 2794 1537 2939 
Q 1816 3084 2150 3084 
Q 2853 3084 3261 2657 
Q 3669 2231 3669 1497 
Q 3669 778 3244 343 
Q 2819 -91 2113 -91 
Q 1303 -91 875 529 
Q 447 1150 447 2328 
Q 447 3434 972 4092 
Q 1497 4750 2381 4750 
Q 2619 4750 2861 4703 
Q 3103 4656 3366 4563 
z
" id="DejaVuSans-36" transform="scale(0.015625)"/>
       </defs>
       <use xlink:href="#DejaVuSans-36"/>
      </g>
     </g>
    </g>
    <g id="xtick_5">
     <g id="line2d_5">
      <g>
       <use style="stroke:#000000;stroke-width:0.8;" x="337.520072" xlink:href="#m3138772b10" y="245.29375"/>
      </g>
     </g>
     <g id="text_5">
      <!-- 8 -->
      <g transform="translate(334.338822 259.892187)scale(0.1 -0.1)">
       <defs>
        <path d="M 2034 2216 
Q 1584 2216 1326 1975 
Q 1069 1734 1069 1313 
Q 1069 891 1326 650 
Q 1584 409 2034 409 
Q 2484 409 2743 651 
Q 3003 894 3003 1313 
Q 3003 1734 2745 1975 
Q 2488 2216 2034 2216 
z
M 1403 2484 
Q 997 2584 770 2862 
Q 544 3141 544 3541 
Q 544 4100 942 4425 
Q 1341 4750 2034 4750 
Q 2731 4750 3128 4425 
Q 3525 4100 3525 3541 
Q 3525 3141 3298 2862 
Q 3072 2584 2669 2484 
Q 3125 2378 3379 2068 
Q 3634 1759 3634 1313 
Q 3634 634 3220 271 
Q 2806 -91 2034 -91 
Q 1263 -91 848 271 
Q 434 634 434 1313 
Q 434 1759 690 2068 
Q 947 2378 1403 2484 
z
M 1172 3481 
Q 1172 3119 1398 2916 
Q 1625 2713 2034 2713 
Q 2441 2713 2670 2916 
Q 2900 3119 2900 3481 
Q 2900 3844 2670 4047 
Q 2441 4250 2034 4250 
Q 1625 4250 1398 4047 
Q 1172 3844 1172 3481 
z
" id="DejaVuSans-38" transform="scale(0.015625)"/>
       </defs>
       <use xlink:href="#DejaVuSans-38"/>
      </g>
     </g>
    </g>
    <g id="xtick_6">
     <g id="line2d_6">
      <g>
       <use style="stroke:#000000;stroke-width:0.8;" x="407.10837" xlink:href="#m3138772b10" y="245.29375"/>
      </g>
     </g>
     <g id="text_6">
      <!-- 10 -->
      <g transform="translate(400.74587 259.892187)scale(0.1 -0.1)">
       <defs>
        <path d="M 794 531 
L 1825 531 
L 1825 4091 
L 703 3866 
L 703 4441 
L 1819 4666 
L 2450 4666 
L 2450 531 
L 3481 531 
L 3481 0 
L 794 0 
L 794 531 
z
" id="DejaVuSans-31" transform="scale(0.015625)"/>
       </defs>
       <use xlink:href="#DejaVuSans-31"/>
       <use x="63.623047" xlink:href="#DejaVuSans-30"/>
      </g>
     </g>
    </g>
    <g id="text_7">
     <!-- p/p_c -->
     <g transform="translate(218.463828 273.292188)scale(0.1 -0.1)">
      <defs>
       <path d="M 1159 525 
L 1159 -1331 
L 581 -1331 
L 581 3500 
L 1159 3500 
L 1159 2969 
Q 1341 3281 1617 3432 
Q 1894 3584 2278 3584 
Q 2916 3584 3314 3078 
Q 3713 2572 3713 1747 
Q 3713 922 3314 415 
Q 2916 -91 2278 -91 
Q 1894 -91 1617 61 
Q 1341 213 1159 525 
z
M 3116 1747 
Q 3116 2381 2855 2742 
Q 2594 3103 2138 3103 
Q 1681 3103 1420 2742 
Q 1159 2381 1159 1747 
Q 1159 1113 1420 752 
Q 1681 391 2138 391 
Q 2594 391 2855 752 
Q 3116 1113 3116 1747 
z
" id="DejaVuSans-70" transform="scale(0.015625)"/>
       <path d="M 1625 4666 
L 2156 4666 
L 531 -594 
L 0 -594 
L 1625 4666 
z
" id="DejaVuSans-2f" transform="scale(0.015625)"/>
       <path d="M 3263 -1063 
L 3263 -1509 
L -63 -1509 
L -63 -1063 
L 3263 -1063 
z
" id="DejaVuSans-5f" transform="scale(0.015625)"/>
       <path d="M 3122 3366 
L 3122 2828 
Q 2878 2963 2633 3030 
Q 2388 3097 2138 3097 
Q 1578 3097 1268 2742 
Q 959 2388 959 1747 
Q 959 1106 1268 751 
Q 1578 397 2138 397 
Q 2388 397 2633 464 
Q 2878 531 3122 666 
L 3122 134 
Q 2881 22 2623 -34 
Q 2366 -91 2075 -91 
Q 1284 -91 818 406 
Q 353 903 353 1747 
Q 353 2603 823 3093 
Q 1294 3584 2113 3584 
Q 2378 3584 2631 3529 
Q 2884 3475 3122 3366 
z
" id="DejaVuSans-63" transform="scale(0.015625)"/>
      </defs>
      <use xlink:href="#DejaVuSans-70"/>
      <use x="63.476562" xlink:href="#DejaVuSans-2f"/>
      <use x="97.167969" xlink:href="#DejaVuSans-70"/>
      <use x="160.644531" xlink:href="#DejaVuSans-5f"/>
      <use x="210.644531" xlink:href="#DejaVuSans-63"/>
     </g>
    </g>
   </g>
   <g id="matplotlib.axis_2">
    <g id="ytick_1">
     <g id="line2d_7">
      <defs>
       <path d="M 0 0 
L -3.5 0 
" id="mf5f9d0c17e" style="stroke:#000000;stroke-width:0.8;"/>
      </defs>
      <g>
       <use style="stroke:#000000;stroke-width:0.8;" x="42.291719" xlink:href="#mf5f9d0c17e" y="201.813118"/>
      </g>
     </g>
     <g id="text_8">
      <!-- $\mathdefault{10^{-2}}$ -->
      <g transform="translate(11.791719 205.612336)scale(0.1 -0.1)">
       <defs>
        <path d="M 678 2272 
L 4684 2272 
L 4684 1741 
L 678 1741 
L 678 2272 
z
" id="DejaVuSans-2212" transform="scale(0.015625)"/>
       </defs>
       <use transform="translate(0 0.765625)" xlink:href="#DejaVuSans-31"/>
       <use transform="translate(63.623047 0.765625)" xlink:href="#DejaVuSans-30"/>
       <use transform="translate(128.203125 39.046875)scale(0.7)" xlink:href="#DejaVuSans-2212"/>
       <use transform="translate(186.855469 39.046875)scale(0.7)" xlink:href="#DejaVuSans-32"/>
      </g>
     </g>
    </g>
    <g id="ytick_2">
     <g id="line2d_8">
      <g>
       <use style="stroke:#000000;stroke-width:0.8;" x="42.291719" xlink:href="#mf5f9d0c17e" y="119.059944"/>
      </g>
     </g>
     <g id="text_9">
      <!-- $\mathdefault{10^{-1}}$ -->
      <g transform="translate(11.791719 122.859163)scale(0.1 -0.1)">
       <use transform="translate(0 0.684375)" xlink:href="#DejaVuSans-31"/>
       <use transform="translate(63.623047 0.684375)" xlink:href="#DejaVuSans-30"/>
       <use transform="translate(128.203125 38.965625)scale(0.7)" xlink:href="#DejaVuSans-2212"/>
       <use transform="translate(186.855469 38.965625)scale(0.7)" xlink:href="#DejaVuSans-31"/>
      </g>
     </g>
    </g>
    <g id="ytick_3">
     <g id="line2d_9">
      <g>
       <use style="stroke:#000000;stroke-width:0.8;" x="42.291719" xlink:href="#mf5f9d0c17e" y="36.30677"/>
      </g>
     </g>
     <g id="text_10">
      <!-- $\mathdefault{10^{0}}$ -->
      <g transform="translate(17.691719 40.105989)scale(0.1 -0.1)">
       <use transform="translate(0 0.765625)" xlink:href="#DejaVuSans-31"/>
       <use transform="translate(63.623047 0.765625)" xlink:href="#DejaVuSans-30"/>
       <use transform="translate(128.203125 39.046875)scale(0.7)" xlink:href="#DejaVuSans-30"/>
      </g>
     </g>
    </g>
    <g id="ytick_4">
     <g id="line2d_10">
      <defs>
       <path d="M 0 0 
L -2 0 
" id="md5bf61eb77" style="stroke:#000000;stroke-width:0.6;"/>
      </defs>
      <g>
       <use style="stroke:#000000;stroke-width:0.6;" x="42.291719" xlink:href="#md5bf61eb77" y="245.082993"/>
      </g>
     </g>
    </g>
    <g id="ytick_5">
     <g id="line2d_11">
      <g>
       <use style="stroke:#000000;stroke-width:0.6;" x="42.291719" xlink:href="#md5bf61eb77" y="234.743916"/>
      </g>
     </g>
    </g>
    <g id="ytick_6">
     <g id="line2d_12">
      <g>
       <use style="stroke:#000000;stroke-width:0.6;" x="42.291719" xlink:href="#md5bf61eb77" y="226.724305"/>
      </g>
     </g>
    </g>
    <g id="ytick_7">
     <g id="line2d_13">
      <g>
       <use style="stroke:#000000;stroke-width:0.6;" x="42.291719" xlink:href="#md5bf61eb77" y="220.171806"/>
      </g>
     </g>
    </g>
    <g id="ytick_8">
     <g id="line2d_14">
      <g>
       <use style="stroke:#000000;stroke-width:0.6;" x="42.291719" xlink:href="#md5bf61eb77" y="214.631746"/>
      </g>
     </g>
    </g>
    <g id="ytick_9">
     <g id="line2d_15">
      <g>
       <use style="stroke:#000000;stroke-width:0.6;" x="42.291719" xlink:href="#md5bf61eb77" y="209.832729"/>
      </g>
     </g>
    </g>
    <g id="ytick_10">
     <g id="line2d_16">
      <g>
       <use style="stroke:#000000;stroke-width:0.6;" x="42.291719" xlink:href="#md5bf61eb77" y="205.599695"/>
      </g>
     </g>
    </g>
    <g id="ytick_11">
     <g id="line2d_17">
      <g>
       <use style="stroke:#000000;stroke-width:0.6;" x="42.291719" xlink:href="#md5bf61eb77" y="176.90193"/>
      </g>
     </g>
    </g>
    <g id="ytick_12">
     <g id="line2d_18">
      <g>
       <use style="stroke:#000000;stroke-width:0.6;" x="42.291719" xlink:href="#md5bf61eb77" y="162.329819"/>
      </g>
     </g>
    </g>
    <g id="ytick_13">
     <g id="line2d_19">
      <g>
       <use style="stroke:#000000;stroke-width:0.6;" x="42.291719" xlink:href="#md5bf61eb77" y="151.990743"/>
      </g>
     </g>
    </g>
    <g id="ytick_14">
     <g id="line2d_20">
      <g>
       <use style="stroke:#000000;stroke-width:0.6;" x="42.291719" xlink:href="#md5bf61eb77" y="143.971131"/>
      </g>
     </g>
    </g>
    <g id="ytick_15">
     <g id="line2d_21">
      <g>
       <use style="stroke:#000000;stroke-width:0.6;" x="42.291719" xlink:href="#md5bf61eb77" y="137.418632"/>
      </g>
     </g>
    </g>
    <g id="ytick_16">
     <g id="line2d_22">
      <g>
       <use style="stroke:#000000;stroke-width:0.6;" x="42.291719" xlink:href="#md5bf61eb77" y="131.878573"/>
      </g>
     </g>
    </g>
    <g id="ytick_17">
     <g id="line2d_23">
      <g>
       <use style="stroke:#000000;stroke-width:0.6;" x="42.291719" xlink:href="#md5bf61eb77" y="127.079555"/>
      </g>
     </g>
    </g>
    <g id="ytick_18">
     <g id="line2d_24">
      <g>
       <use style="stroke:#000000;stroke-width:0.6;" x="42.291719" xlink:href="#md5bf61eb77" y="122.846521"/>
      </g>
     </g>
    </g>
    <g id="ytick_19">
     <g id="line2d_25">
      <g>
       <use style="stroke:#000000;stroke-width:0.6;" x="42.291719" xlink:href="#md5bf61eb77" y="94.148756"/>
      </g>
     </g>
    </g>
    <g id="ytick_20">
     <g id="line2d_26">
      <g>
       <use style="stroke:#000000;stroke-width:0.6;" x="42.291719" xlink:href="#md5bf61eb77" y="79.576646"/>
      </g>
     </g>
    </g>
    <g id="ytick_21">
     <g id="line2d_27">
      <g>
       <use style="stroke:#000000;stroke-width:0.6;" x="42.291719" xlink:href="#md5bf61eb77" y="69.237569"/>
      </g>
     </g>
    </g>
    <g id="ytick_22">
     <g id="line2d_28">
      <g>
       <use style="stroke:#000000;stroke-width:0.6;" x="42.291719" xlink:href="#md5bf61eb77" y="61.217958"/>
      </g>
     </g>
    </g>
    <g id="ytick_23">
     <g id="line2d_29">
      <g>
       <use style="stroke:#000000;stroke-width:0.6;" x="42.291719" xlink:href="#md5bf61eb77" y="54.665458"/>
      </g>
     </g>
    </g>
    <g id="ytick_24">
     <g id="line2d_30">
      <g>
       <use style="stroke:#000000;stroke-width:0.6;" x="42.291719" xlink:href="#md5bf61eb77" y="49.125399"/>
      </g>
     </g>
    </g>
    <g id="ytick_25">
     <g id="line2d_31">
      <g>
       <use style="stroke:#000000;stroke-width:0.6;" x="42.291719" xlink:href="#md5bf61eb77" y="44.326381"/>
      </g>
     </g>
    </g>
    <g id="ytick_26">
     <g id="line2d_32">
      <g>
       <use style="stroke:#000000;stroke-width:0.6;" x="42.291719" xlink:href="#md5bf61eb77" y="40.093348"/>
      </g>
     </g>
    </g>
   </g>
   <g id="line2d_33">
    <path clip-path="url(#p5aa27228d8)" d="M 59.514822 36.844242 
L 62.994237 42.249303 
L 66.473652 47.575783 
L 69.953067 52.916113 
L 73.432482 58.292494 
L 76.911897 63.673868 
L 80.391312 68.945628 
L 83.870727 74.476572 
L 87.350142 79.838305 
L 90.829556 85.231194 
L 94.308971 90.534787 
L 97.788386 96.016324 
L 101.267801 101.321498 
L 104.747216 106.929541 
L 108.226631 112.144648 
L 111.706046 117.673715 
L 115.185461 123.073354 
L 118.664876 128.388494 
L 122.14429 133.985089 
L 125.623705 139.334657 
L 129.10312 144.801871 
L 132.582535 150.332583 
L 136.06195 155.475355 
L 139.541365 161.538938 
L 143.02078 167.068988 
L 146.500195 172.678881 
L 149.97961 177.559304 
L 153.459024 182.63192 
L 156.938439 187.781139 
L 160.417854 192.675401 
L 163.897269 198.285786 
L 167.376684 202.27884 
L 170.856099 205.880315 
L 174.335514 209.631137 
L 177.814929 212.194148 
L 181.294344 216.08549 
L 184.773758 218.070602 
L 188.253173 219.806786 
L 191.732588 221.670128 
L 195.212003 222.723629 
L 198.691418 223.875287 
L 202.170833 224.520142 
L 205.650248 224.885355 
L 209.129663 225.557459 
L 212.609077 225.810584 
L 216.088492 226.047865 
L 219.567907 226.153829 
L 223.047322 226.384494 
L 226.526737 226.44685 
L 230.006152 226.527181 
L 233.485567 226.589785 
L 236.964982 226.607692 
L 240.444397 226.598737 
L 243.923811 226.652498 
L 247.403226 226.679409 
L 250.882641 226.697361 
L 254.362056 226.697361 
L 257.841471 226.715321 
L 261.320886 226.697361 
L 264.800301 226.724305 
L 268.279716 226.715321 
L 271.759131 226.724305 
L 275.238545 226.724305 
L 278.71796 226.724305 
L 282.197375 226.724305 
L 285.67679 226.724305 
L 289.156205 226.715321 
L 292.63562 226.724305 
L 296.115035 226.724305 
L 299.59445 226.724305 
L 303.073865 226.724305 
L 306.553279 226.715321 
L 310.032694 226.724305 
L 313.512109 226.724305 
L 316.991524 226.724305 
L 320.470939 226.724305 
L 323.950354 226.724305 
L 327.429769 226.724305 
L 330.909184 226.724305 
L 334.388599 226.724305 
L 337.868013 226.724305 
L 341.347428 226.724305 
L 344.826843 226.724305 
L 348.306258 226.724305 
L 351.785673 226.724305 
L 355.265088 226.724305 
L 358.744503 226.724305 
L 362.223918 226.724305 
L 365.703333 226.724305 
L 369.182747 226.724305 
L 372.662162 226.724305 
L 376.141577 226.724305 
L 379.620992 226.724305 
L 383.100407 226.724305 
L 386.579822 226.724305 
L 390.059237 226.724305 
L 393.538652 226.724305 
L 397.018067 226.724305 
L 400.497481 226.724305 
L 403.976896 226.724305 
" style="fill:none;stroke:#1f77b4;stroke-linecap:square;stroke-width:1.5;"/>
   </g>
   <g id="line2d_34">
    <path clip-path="url(#p5aa27228d8)" d="M 59.514822 36.843695 
L 62.994237 42.242944 
L 66.473652 47.544755 
L 69.953067 52.939869 
L 73.432482 58.237127 
L 76.911897 63.661075 
L 80.391312 68.96524 
L 83.870727 74.414128 
L 87.350142 79.799409 
L 90.829556 85.237855 
L 94.308971 90.524834 
L 97.788386 95.885014 
L 101.267801 101.450896 
L 104.747216 106.861328 
L 108.226631 112.197684 
L 111.706046 117.657293 
L 115.185461 123.192096 
L 118.664876 128.499901 
L 122.14429 133.971481 
L 125.623705 139.310972 
L 129.10312 144.65139 
L 132.582535 150.378729 
L 136.06195 155.670161 
L 139.541365 161.228266 
L 143.02078 166.791569 
L 146.500195 172.080738 
L 149.97961 177.247253 
L 153.459024 182.771818 
L 156.938439 187.430185 
L 160.417854 192.484299 
L 163.897269 197.321456 
L 167.376684 201.799643 
L 170.856099 205.835068 
L 174.335514 209.486243 
L 177.814929 213.228355 
L 181.294344 215.194471 
L 184.773758 217.510025 
L 188.253173 220.314347 
L 191.732588 221.506573 
L 195.212003 222.611269 
L 198.691418 223.900195 
L 202.170833 224.444169 
L 205.650248 225.228453 
L 209.129663 225.427228 
L 212.609077 225.653262 
L 216.088492 225.880726 
L 219.567907 226.251237 
L 223.047322 226.260106 
L 226.526737 226.473607 
L 230.006152 226.429023 
L 233.485567 226.545057 
L 236.964982 226.652498 
L 240.444397 226.625608 
L 243.923811 226.634569 
L 247.403226 226.70634 
L 250.882641 226.688384 
L 254.362056 226.688384 
L 257.841471 226.724305 
L 261.320886 226.724305 
L 264.800301 226.70634 
L 268.279716 226.724305 
L 271.759131 226.724305 
L 275.238545 226.70634 
L 278.71796 226.724305 
L 282.197375 226.724305 
L 285.67679 226.724305 
L 289.156205 226.724305 
L 292.63562 226.724305 
L 296.115035 226.724305 
L 299.59445 226.724305 
L 303.073865 226.724305 
L 306.553279 226.724305 
L 310.032694 226.724305 
L 313.512109 226.724305 
L 316.991524 226.724305 
L 320.470939 226.724305 
L 323.950354 226.724305 
L 327.429769 226.724305 
L 330.909184 226.724305 
L 334.388599 226.724305 
L 337.868013 226.724305 
L 341.347428 226.724305 
L 344.826843 226.724305 
L 348.306258 226.724305 
L 351.785673 226.724305 
L 355.265088 226.724305 
L 358.744503 226.724305 
L 362.223918 226.724305 
L 365.703333 226.724305 
L 369.182747 226.724305 
L 372.662162 226.724305 
L 376.141577 226.724305 
L 379.620992 226.724305 
L 383.100407 226.724305 
L 386.579822 226.724305 
L 390.059237 226.724305 
L 393.538652 226.724305 
L 397.018067 226.724305 
L 400.497481 226.724305 
L 403.976896 226.724305 
" style="fill:none;stroke:#ff7f0e;stroke-linecap:square;stroke-width:1.5;"/>
   </g>
   <g id="line2d_35">
    <path clip-path="url(#p5aa27228d8)" d="M 59.514822 36.731534 
L 62.994237 42.16202 
L 66.473652 47.588686 
L 69.953067 53.010915 
L 73.432482 58.427987 
L 76.911897 63.839071 
L 80.391312 69.2432 
L 83.870727 74.63926 
L 87.350142 80.025956 
L 90.829556 85.401796 
L 94.308971 90.765057 
L 97.788386 96.113749 
L 101.267801 101.445586 
L 104.747216 106.75794 
L 108.226631 112.047795 
L 111.706046 117.311705 
L 115.185461 122.545736 
L 118.664876 127.745418 
L 122.14429 132.905687 
L 125.623705 138.020829 
L 129.10312 143.084437 
L 132.582535 148.089359 
L 136.06195 153.027671 
L 139.541365 157.890659 
L 143.02078 162.668827 
L 146.500195 167.351933 
L 149.97961 171.929059 
L 153.459024 176.388731 
L 156.938439 180.719081 
L 160.417854 184.908063 
L 163.897269 188.94372 
L 167.376684 192.814496 
L 170.856099 196.509579 
L 174.335514 200.019271 
L 177.814929 203.335339 
L 181.294344 206.451348 
L 184.773758 209.362933 
L 188.253173 212.067988 
L 191.732588 214.566763 
L 195.212003 216.861855 
L 198.691418 218.958086 
L 202.170833 220.862298 
L 205.650248 222.583061 
L 209.129663 224.130341 
L 212.609077 225.515137 
L 216.088492 226.749118 
L 219.567907 227.844285 
L 223.047322 228.812665 
L 226.526737 229.666062 
L 230.006152 230.415841 
L 233.485567 231.072787 
L 236.964982 231.646988 
L 240.444397 232.147776 
L 243.923811 232.583698 
L 247.403226 232.962513 
L 250.882641 233.29121 
L 254.362056 233.576048 
L 257.841471 233.822597 
L 261.320886 234.035792 
L 264.800301 234.219984 
L 268.279716 234.378999 
L 271.759131 234.516189 
L 275.238545 234.634483 
L 278.71796 234.736432 
L 282.197375 234.824259 
L 285.67679 234.899892 
L 289.156205 234.965003 
L 292.63562 235.02104 
L 296.115035 235.069258 
L 299.59445 235.110738 
L 303.073865 235.146416 
L 306.553279 235.177099 
L 310.032694 235.203483 
L 313.512109 235.226167 
L 316.991524 235.245669 
L 320.470939 235.262433 
L 323.950354 235.276843 
L 327.429769 235.289229 
L 330.909184 235.299875 
L 334.388599 235.309024 
L 337.868013 235.316886 
L 341.347428 235.323643 
L 344.826843 235.32945 
L 348.306258 235.33444 
L 351.785673 235.338728 
L 355.265088 235.342412 
L 358.744503 235.345578 
L 362.223918 235.348299 
L 365.703333 235.350636 
L 369.182747 235.352645 
L 372.662162 235.354371 
L 376.141577 235.355854 
L 379.620992 235.357128 
L 383.100407 235.358223 
L 386.579822 235.359163 
L 390.059237 235.359972 
L 393.538652 235.360666 
L 397.018067 235.361263 
L 400.497481 235.361775 
L 403.976896 235.362216 
" style="fill:none;stroke:#2ca02c;stroke-dasharray:5.55,2.4;stroke-dashoffset:0;stroke-width:1.5;"/>
   </g>
   <g id="patch_3">
    <path d="M 42.291719 245.29375 
L 42.291719 26.8 
" style="fill:none;stroke:#000000;stroke-linecap:square;stroke-linejoin:miter;stroke-width:0.8;"/>
   </g>
   <g id="patch_4">
    <path d="M 421.2 245.29375 
L 421.2 26.8 
" style="fill:none;stroke:#000000;stroke-linecap:square;stroke-linejoin:miter;stroke-width:0.8;"/>
   </g>
   <g id="patch_5">
    <path d="M 42.291719 245.29375 
L 421.2 245.29375 
" style="fill:none;stroke:#000000;stroke-linecap:square;stroke-linejoin:miter;stroke-width:0.8;"/>
   </g>
   <g id="patch_6">
    <path d="M 42.291719 26.8 
L 421.2 26.8 
" style="fill:none;stroke:#000000;stroke-linecap:square;stroke-linejoin:miter;stroke-width:0.8;"/>
   </g>
   <g id="text_11">
    <!-- N=200 -->
    <g transform="translate(59.514822 170.735243)scale(0.1 -0.1)">
     <defs>
      <path d="M 628 4666 
L 1478 4666 
L 3547 763 
L 3547 4666 
L 4159 4666 
L 4159 0 
L 3309 0 
L 1241 3903 
L 1241 0 
L 628 0 
L 628 4666 
z
" id="DejaVuSans-4e" transform="scale(0.015625)"/>
      <path d="M 678 2906 
L 4684 2906 
L 4684 2381 
L 678 2381 
L 678 2906 
z
M 678 1631 
L 4684 1631 
L 4684 1100 
L 678 1100 
L 678 1631 
z
" id="DejaVuSans-3d" transform="scale(0.015625)"/>
     </defs>
     <use xlink:href="#DejaVuSans-4e"/>
     <use x="74.804688" xlink:href="#DejaVuSans-3d"/>
     <use x="158.59375" xlink:href="#DejaVuSans-32"/>
     <use x="222.216797" xlink:href="#DejaVuSans-30"/>
     <use x="285.839844" xlink:href="#DejaVuSans-30"/>
    </g>
    <!-- Fit function: a * exp(-bx) + c -->
    <g transform="translate(59.514822 181.933055)scale(0.1 -0.1)">
     <defs>
      <path d="M 628 4666 
L 3309 4666 
L 3309 4134 
L 1259 4134 
L 1259 2759 
L 3109 2759 
L 3109 2228 
L 1259 2228 
L 1259 0 
L 628 0 
L 628 4666 
z
" id="DejaVuSans-46" transform="scale(0.015625)"/>
      <path d="M 603 3500 
L 1178 3500 
L 1178 0 
L 603 0 
L 603 3500 
z
M 603 4863 
L 1178 4863 
L 1178 4134 
L 603 4134 
L 603 4863 
z
" id="DejaVuSans-69" transform="scale(0.015625)"/>
      <path d="M 1172 4494 
L 1172 3500 
L 2356 3500 
L 2356 3053 
L 1172 3053 
L 1172 1153 
Q 1172 725 1289 603 
Q 1406 481 1766 481 
L 2356 481 
L 2356 0 
L 1766 0 
Q 1100 0 847 248 
Q 594 497 594 1153 
L 594 3053 
L 172 3053 
L 172 3500 
L 594 3500 
L 594 4494 
L 1172 4494 
z
" id="DejaVuSans-74" transform="scale(0.015625)"/>
      <path id="DejaVuSans-20" transform="scale(0.015625)"/>
      <path d="M 2375 4863 
L 2375 4384 
L 1825 4384 
Q 1516 4384 1395 4259 
Q 1275 4134 1275 3809 
L 1275 3500 
L 2222 3500 
L 2222 3053 
L 1275 3053 
L 1275 0 
L 697 0 
L 697 3053 
L 147 3053 
L 147 3500 
L 697 3500 
L 697 3744 
Q 697 4328 969 4595 
Q 1241 4863 1831 4863 
L 2375 4863 
z
" id="DejaVuSans-66" transform="scale(0.015625)"/>
      <path d="M 544 1381 
L 544 3500 
L 1119 3500 
L 1119 1403 
Q 1119 906 1312 657 
Q 1506 409 1894 409 
Q 2359 409 2629 706 
Q 2900 1003 2900 1516 
L 2900 3500 
L 3475 3500 
L 3475 0 
L 2900 0 
L 2900 538 
Q 2691 219 2414 64 
Q 2138 -91 1772 -91 
Q 1169 -91 856 284 
Q 544 659 544 1381 
z
M 1991 3584 
L 1991 3584 
z
" id="DejaVuSans-75" transform="scale(0.015625)"/>
      <path d="M 3513 2113 
L 3513 0 
L 2938 0 
L 2938 2094 
Q 2938 2591 2744 2837 
Q 2550 3084 2163 3084 
Q 1697 3084 1428 2787 
Q 1159 2491 1159 1978 
L 1159 0 
L 581 0 
L 581 3500 
L 1159 3500 
L 1159 2956 
Q 1366 3272 1645 3428 
Q 1925 3584 2291 3584 
Q 2894 3584 3203 3211 
Q 3513 2838 3513 2113 
z
" id="DejaVuSans-6e" transform="scale(0.015625)"/>
      <path d="M 1959 3097 
Q 1497 3097 1228 2736 
Q 959 2375 959 1747 
Q 959 1119 1226 758 
Q 1494 397 1959 397 
Q 2419 397 2687 759 
Q 2956 1122 2956 1747 
Q 2956 2369 2687 2733 
Q 2419 3097 1959 3097 
z
M 1959 3584 
Q 2709 3584 3137 3096 
Q 3566 2609 3566 1747 
Q 3566 888 3137 398 
Q 2709 -91 1959 -91 
Q 1206 -91 779 398 
Q 353 888 353 1747 
Q 353 2609 779 3096 
Q 1206 3584 1959 3584 
z
" id="DejaVuSans-6f" transform="scale(0.015625)"/>
      <path d="M 750 794 
L 1409 794 
L 1409 0 
L 750 0 
L 750 794 
z
M 750 3309 
L 1409 3309 
L 1409 2516 
L 750 2516 
L 750 3309 
z
" id="DejaVuSans-3a" transform="scale(0.015625)"/>
      <path d="M 2194 1759 
Q 1497 1759 1228 1600 
Q 959 1441 959 1056 
Q 959 750 1161 570 
Q 1363 391 1709 391 
Q 2188 391 2477 730 
Q 2766 1069 2766 1631 
L 2766 1759 
L 2194 1759 
z
M 3341 1997 
L 3341 0 
L 2766 0 
L 2766 531 
Q 2569 213 2275 61 
Q 1981 -91 1556 -91 
Q 1019 -91 701 211 
Q 384 513 384 1019 
Q 384 1609 779 1909 
Q 1175 2209 1959 2209 
L 2766 2209 
L 2766 2266 
Q 2766 2663 2505 2880 
Q 2244 3097 1772 3097 
Q 1472 3097 1187 3025 
Q 903 2953 641 2809 
L 641 3341 
Q 956 3463 1253 3523 
Q 1550 3584 1831 3584 
Q 2591 3584 2966 3190 
Q 3341 2797 3341 1997 
z
" id="DejaVuSans-61" transform="scale(0.015625)"/>
      <path d="M 3009 3897 
L 1888 3291 
L 3009 2681 
L 2828 2375 
L 1778 3009 
L 1778 1831 
L 1422 1831 
L 1422 3009 
L 372 2375 
L 191 2681 
L 1313 3291 
L 191 3897 
L 372 4206 
L 1422 3572 
L 1422 4750 
L 1778 4750 
L 1778 3572 
L 2828 4206 
L 3009 3897 
z
" id="DejaVuSans-2a" transform="scale(0.015625)"/>
      <path d="M 3597 1894 
L 3597 1613 
L 953 1613 
Q 991 1019 1311 708 
Q 1631 397 2203 397 
Q 2534 397 2845 478 
Q 3156 559 3463 722 
L 3463 178 
Q 3153 47 2828 -22 
Q 2503 -91 2169 -91 
Q 1331 -91 842 396 
Q 353 884 353 1716 
Q 353 2575 817 3079 
Q 1281 3584 2069 3584 
Q 2775 3584 3186 3129 
Q 3597 2675 3597 1894 
z
M 3022 2063 
Q 3016 2534 2758 2815 
Q 2500 3097 2075 3097 
Q 1594 3097 1305 2825 
Q 1016 2553 972 2059 
L 3022 2063 
z
" id="DejaVuSans-65" transform="scale(0.015625)"/>
      <path d="M 3513 3500 
L 2247 1797 
L 3578 0 
L 2900 0 
L 1881 1375 
L 863 0 
L 184 0 
L 1544 1831 
L 300 3500 
L 978 3500 
L 1906 2253 
L 2834 3500 
L 3513 3500 
z
" id="DejaVuSans-78" transform="scale(0.015625)"/>
      <path d="M 1984 4856 
Q 1566 4138 1362 3434 
Q 1159 2731 1159 2009 
Q 1159 1288 1364 580 
Q 1569 -128 1984 -844 
L 1484 -844 
Q 1016 -109 783 600 
Q 550 1309 550 2009 
Q 550 2706 781 3412 
Q 1013 4119 1484 4856 
L 1984 4856 
z
" id="DejaVuSans-28" transform="scale(0.015625)"/>
      <path d="M 313 2009 
L 1997 2009 
L 1997 1497 
L 313 1497 
L 313 2009 
z
" id="DejaVuSans-2d" transform="scale(0.015625)"/>
      <path d="M 3116 1747 
Q 3116 2381 2855 2742 
Q 2594 3103 2138 3103 
Q 1681 3103 1420 2742 
Q 1159 2381 1159 1747 
Q 1159 1113 1420 752 
Q 1681 391 2138 391 
Q 2594 391 2855 752 
Q 3116 1113 3116 1747 
z
M 1159 2969 
Q 1341 3281 1617 3432 
Q 1894 3584 2278 3584 
Q 2916 3584 3314 3078 
Q 3713 2572 3713 1747 
Q 3713 922 3314 415 
Q 2916 -91 2278 -91 
Q 1894 -91 1617 61 
Q 1341 213 1159 525 
L 1159 0 
L 581 0 
L 581 4863 
L 1159 4863 
L 1159 2969 
z
" id="DejaVuSans-62" transform="scale(0.015625)"/>
      <path d="M 513 4856 
L 1013 4856 
Q 1481 4119 1714 3412 
Q 1947 2706 1947 2009 
Q 1947 1309 1714 600 
Q 1481 -109 1013 -844 
L 513 -844 
Q 928 -128 1133 580 
Q 1338 1288 1338 2009 
Q 1338 2731 1133 3434 
Q 928 4138 513 4856 
z
" id="DejaVuSans-29" transform="scale(0.015625)"/>
      <path d="M 2944 4013 
L 2944 2272 
L 4684 2272 
L 4684 1741 
L 2944 1741 
L 2944 0 
L 2419 0 
L 2419 1741 
L 678 1741 
L 678 2272 
L 2419 2272 
L 2419 4013 
L 2944 4013 
z
" id="DejaVuSans-2b" transform="scale(0.015625)"/>
     </defs>
     <use xlink:href="#DejaVuSans-46"/>
     <use x="50.269531" xlink:href="#DejaVuSans-69"/>
     <use x="78.052734" xlink:href="#DejaVuSans-74"/>
     <use x="117.261719" xlink:href="#DejaVuSans-20"/>
     <use x="149.048828" xlink:href="#DejaVuSans-66"/>
     <use x="184.253906" xlink:href="#DejaVuSans-75"/>
     <use x="247.632812" xlink:href="#DejaVuSans-6e"/>
     <use x="311.011719" xlink:href="#DejaVuSans-63"/>
     <use x="365.992188" xlink:href="#DejaVuSans-74"/>
     <use x="405.201172" xlink:href="#DejaVuSans-69"/>
     <use x="432.984375" xlink:href="#DejaVuSans-6f"/>
     <use x="494.166016" xlink:href="#DejaVuSans-6e"/>
     <use x="557.544922" xlink:href="#DejaVuSans-3a"/>
     <use x="591.236328" xlink:href="#DejaVuSans-20"/>
     <use x="623.023438" xlink:href="#DejaVuSans-61"/>
     <use x="684.302734" xlink:href="#DejaVuSans-20"/>
     <use x="716.089844" xlink:href="#DejaVuSans-2a"/>
     <use x="766.089844" xlink:href="#DejaVuSans-20"/>
     <use x="797.876953" xlink:href="#DejaVuSans-65"/>
     <use x="857.650391" xlink:href="#DejaVuSans-78"/>
     <use x="916.830078" xlink:href="#DejaVuSans-70"/>
     <use x="980.306641" xlink:href="#DejaVuSans-28"/>
     <use x="1019.320312" xlink:href="#DejaVuSans-2d"/>
     <use x="1055.404297" xlink:href="#DejaVuSans-62"/>
     <use x="1118.880859" xlink:href="#DejaVuSans-78"/>
     <use x="1178.060547" xlink:href="#DejaVuSans-29"/>
     <use x="1217.074219" xlink:href="#DejaVuSans-20"/>
     <use x="1248.861328" xlink:href="#DejaVuSans-2b"/>
     <use x="1332.650391" xlink:href="#DejaVuSans-20"/>
     <use x="1364.4375" xlink:href="#DejaVuSans-63"/>
    </g>
    <!-- Fit values: -->
    <g transform="translate(59.514822 193.130868)scale(0.1 -0.1)">
     <defs>
      <path d="M 191 3500 
L 800 3500 
L 1894 563 
L 2988 3500 
L 3597 3500 
L 2284 0 
L 1503 0 
L 191 3500 
z
" id="DejaVuSans-76" transform="scale(0.015625)"/>
      <path d="M 603 4863 
L 1178 4863 
L 1178 0 
L 603 0 
L 603 4863 
z
" id="DejaVuSans-6c" transform="scale(0.015625)"/>
      <path d="M 2834 3397 
L 2834 2853 
Q 2591 2978 2328 3040 
Q 2066 3103 1784 3103 
Q 1356 3103 1142 2972 
Q 928 2841 928 2578 
Q 928 2378 1081 2264 
Q 1234 2150 1697 2047 
L 1894 2003 
Q 2506 1872 2764 1633 
Q 3022 1394 3022 966 
Q 3022 478 2636 193 
Q 2250 -91 1575 -91 
Q 1294 -91 989 -36 
Q 684 19 347 128 
L 347 722 
Q 666 556 975 473 
Q 1284 391 1588 391 
Q 1994 391 2212 530 
Q 2431 669 2431 922 
Q 2431 1156 2273 1281 
Q 2116 1406 1581 1522 
L 1381 1569 
Q 847 1681 609 1914 
Q 372 2147 372 2553 
Q 372 3047 722 3315 
Q 1072 3584 1716 3584 
Q 2034 3584 2315 3537 
Q 2597 3491 2834 3397 
z
" id="DejaVuSans-73" transform="scale(0.015625)"/>
     </defs>
     <use xlink:href="#DejaVuSans-46"/>
     <use x="50.269531" xlink:href="#DejaVuSans-69"/>
     <use x="78.052734" xlink:href="#DejaVuSans-74"/>
     <use x="117.261719" xlink:href="#DejaVuSans-20"/>
     <use x="149.048828" xlink:href="#DejaVuSans-76"/>
     <use x="208.228516" xlink:href="#DejaVuSans-61"/>
     <use x="269.507812" xlink:href="#DejaVuSans-6c"/>
     <use x="297.291016" xlink:href="#DejaVuSans-75"/>
     <use x="360.669922" xlink:href="#DejaVuSans-65"/>
     <use x="422.193359" xlink:href="#DejaVuSans-73"/>
     <use x="474.292969" xlink:href="#DejaVuSans-3a"/>
    </g>
    <!-- a=199.87 -->
    <g transform="translate(59.514822 204.32868)scale(0.1 -0.1)">
     <defs>
      <path d="M 703 97 
L 703 672 
Q 941 559 1184 500 
Q 1428 441 1663 441 
Q 2288 441 2617 861 
Q 2947 1281 2994 2138 
Q 2813 1869 2534 1725 
Q 2256 1581 1919 1581 
Q 1219 1581 811 2004 
Q 403 2428 403 3163 
Q 403 3881 828 4315 
Q 1253 4750 1959 4750 
Q 2769 4750 3195 4129 
Q 3622 3509 3622 2328 
Q 3622 1225 3098 567 
Q 2575 -91 1691 -91 
Q 1453 -91 1209 -44 
Q 966 3 703 97 
z
M 1959 2075 
Q 2384 2075 2632 2365 
Q 2881 2656 2881 3163 
Q 2881 3666 2632 3958 
Q 2384 4250 1959 4250 
Q 1534 4250 1286 3958 
Q 1038 3666 1038 3163 
Q 1038 2656 1286 2365 
Q 1534 2075 1959 2075 
z
" id="DejaVuSans-39" transform="scale(0.015625)"/>
      <path d="M 684 794 
L 1344 794 
L 1344 0 
L 684 0 
L 684 794 
z
" id="DejaVuSans-2e" transform="scale(0.015625)"/>
      <path d="M 525 4666 
L 3525 4666 
L 3525 4397 
L 1831 0 
L 1172 0 
L 2766 4134 
L 525 4134 
L 525 4666 
z
" id="DejaVuSans-37" transform="scale(0.015625)"/>
     </defs>
     <use xlink:href="#DejaVuSans-61"/>
     <use x="61.279297" xlink:href="#DejaVuSans-3d"/>
     <use x="145.068359" xlink:href="#DejaVuSans-31"/>
     <use x="208.691406" xlink:href="#DejaVuSans-39"/>
     <use x="272.314453" xlink:href="#DejaVuSans-39"/>
     <use x="335.9375" xlink:href="#DejaVuSans-2e"/>
     <use x="367.724609" xlink:href="#DejaVuSans-38"/>
     <use x="431.347656" xlink:href="#DejaVuSans-37"/>
    </g>
    <!-- b=  1.52 -->
    <g transform="translate(59.514822 215.526493)scale(0.1 -0.1)">
     <defs>
      <path d="M 691 4666 
L 3169 4666 
L 3169 4134 
L 1269 4134 
L 1269 2991 
Q 1406 3038 1543 3061 
Q 1681 3084 1819 3084 
Q 2600 3084 3056 2656 
Q 3513 2228 3513 1497 
Q 3513 744 3044 326 
Q 2575 -91 1722 -91 
Q 1428 -91 1123 -41 
Q 819 9 494 109 
L 494 744 
Q 775 591 1075 516 
Q 1375 441 1709 441 
Q 2250 441 2565 725 
Q 2881 1009 2881 1497 
Q 2881 1984 2565 2268 
Q 2250 2553 1709 2553 
Q 1456 2553 1204 2497 
Q 953 2441 691 2322 
L 691 4666 
z
" id="DejaVuSans-35" transform="scale(0.015625)"/>
     </defs>
     <use xlink:href="#DejaVuSans-62"/>
     <use x="63.476562" xlink:href="#DejaVuSans-3d"/>
     <use x="147.265625" xlink:href="#DejaVuSans-20"/>
     <use x="179.052734" xlink:href="#DejaVuSans-20"/>
     <use x="210.839844" xlink:href="#DejaVuSans-31"/>
     <use x="274.462891" xlink:href="#DejaVuSans-2e"/>
     <use x="306.25" xlink:href="#DejaVuSans-35"/>
     <use x="369.873047" xlink:href="#DejaVuSans-32"/>
    </g>
    <!-- c=  0.79 -->
    <g transform="translate(59.514822 226.724305)scale(0.1 -0.1)">
     <use xlink:href="#DejaVuSans-63"/>
     <use x="54.980469" xlink:href="#DejaVuSans-3d"/>
     <use x="138.769531" xlink:href="#DejaVuSans-20"/>
     <use x="170.556641" xlink:href="#DejaVuSans-20"/>
     <use x="202.34375" xlink:href="#DejaVuSans-30"/>
     <use x="265.966797" xlink:href="#DejaVuSans-2e"/>
     <use x="297.753906" xlink:href="#DejaVuSans-37"/>
     <use x="361.376953" xlink:href="#DejaVuSans-39"/>
    </g>
   </g>
   <g id="text_12">
    <!-- Average number of ergodic sets for SBM graphs -->
    <g transform="translate(87.911797 20.8)scale(0.12 -0.12)">
     <defs>
      <path d="M 2188 4044 
L 1331 1722 
L 3047 1722 
L 2188 4044 
z
M 1831 4666 
L 2547 4666 
L 4325 0 
L 3669 0 
L 3244 1197 
L 1141 1197 
L 716 0 
L 50 0 
L 1831 4666 
z
" id="DejaVuSans-41" transform="scale(0.015625)"/>
      <path d="M 2631 2963 
Q 2534 3019 2420 3045 
Q 2306 3072 2169 3072 
Q 1681 3072 1420 2755 
Q 1159 2438 1159 1844 
L 1159 0 
L 581 0 
L 581 3500 
L 1159 3500 
L 1159 2956 
Q 1341 3275 1631 3429 
Q 1922 3584 2338 3584 
Q 2397 3584 2469 3576 
Q 2541 3569 2628 3553 
L 2631 2963 
z
" id="DejaVuSans-72" transform="scale(0.015625)"/>
      <path d="M 2906 1791 
Q 2906 2416 2648 2759 
Q 2391 3103 1925 3103 
Q 1463 3103 1205 2759 
Q 947 2416 947 1791 
Q 947 1169 1205 825 
Q 1463 481 1925 481 
Q 2391 481 2648 825 
Q 2906 1169 2906 1791 
z
M 3481 434 
Q 3481 -459 3084 -895 
Q 2688 -1331 1869 -1331 
Q 1566 -1331 1297 -1286 
Q 1028 -1241 775 -1147 
L 775 -588 
Q 1028 -725 1275 -790 
Q 1522 -856 1778 -856 
Q 2344 -856 2625 -561 
Q 2906 -266 2906 331 
L 2906 616 
Q 2728 306 2450 153 
Q 2172 0 1784 0 
Q 1141 0 747 490 
Q 353 981 353 1791 
Q 353 2603 747 3093 
Q 1141 3584 1784 3584 
Q 2172 3584 2450 3431 
Q 2728 3278 2906 2969 
L 2906 3500 
L 3481 3500 
L 3481 434 
z
" id="DejaVuSans-67" transform="scale(0.015625)"/>
      <path d="M 3328 2828 
Q 3544 3216 3844 3400 
Q 4144 3584 4550 3584 
Q 5097 3584 5394 3201 
Q 5691 2819 5691 2113 
L 5691 0 
L 5113 0 
L 5113 2094 
Q 5113 2597 4934 2840 
Q 4756 3084 4391 3084 
Q 3944 3084 3684 2787 
Q 3425 2491 3425 1978 
L 3425 0 
L 2847 0 
L 2847 2094 
Q 2847 2600 2669 2842 
Q 2491 3084 2119 3084 
Q 1678 3084 1418 2786 
Q 1159 2488 1159 1978 
L 1159 0 
L 581 0 
L 581 3500 
L 1159 3500 
L 1159 2956 
Q 1356 3278 1631 3431 
Q 1906 3584 2284 3584 
Q 2666 3584 2933 3390 
Q 3200 3197 3328 2828 
z
" id="DejaVuSans-6d" transform="scale(0.015625)"/>
      <path d="M 2906 2969 
L 2906 4863 
L 3481 4863 
L 3481 0 
L 2906 0 
L 2906 525 
Q 2725 213 2448 61 
Q 2172 -91 1784 -91 
Q 1150 -91 751 415 
Q 353 922 353 1747 
Q 353 2572 751 3078 
Q 1150 3584 1784 3584 
Q 2172 3584 2448 3432 
Q 2725 3281 2906 2969 
z
M 947 1747 
Q 947 1113 1208 752 
Q 1469 391 1925 391 
Q 2381 391 2643 752 
Q 2906 1113 2906 1747 
Q 2906 2381 2643 2742 
Q 2381 3103 1925 3103 
Q 1469 3103 1208 2742 
Q 947 2381 947 1747 
z
" id="DejaVuSans-64" transform="scale(0.015625)"/>
      <path d="M 3425 4513 
L 3425 3897 
Q 3066 4069 2747 4153 
Q 2428 4238 2131 4238 
Q 1616 4238 1336 4038 
Q 1056 3838 1056 3469 
Q 1056 3159 1242 3001 
Q 1428 2844 1947 2747 
L 2328 2669 
Q 3034 2534 3370 2195 
Q 3706 1856 3706 1288 
Q 3706 609 3251 259 
Q 2797 -91 1919 -91 
Q 1588 -91 1214 -16 
Q 841 59 441 206 
L 441 856 
Q 825 641 1194 531 
Q 1563 422 1919 422 
Q 2459 422 2753 634 
Q 3047 847 3047 1241 
Q 3047 1584 2836 1778 
Q 2625 1972 2144 2069 
L 1759 2144 
Q 1053 2284 737 2584 
Q 422 2884 422 3419 
Q 422 4038 858 4394 
Q 1294 4750 2059 4750 
Q 2388 4750 2728 4690 
Q 3069 4631 3425 4513 
z
" id="DejaVuSans-53" transform="scale(0.015625)"/>
      <path d="M 1259 2228 
L 1259 519 
L 2272 519 
Q 2781 519 3026 730 
Q 3272 941 3272 1375 
Q 3272 1813 3026 2020 
Q 2781 2228 2272 2228 
L 1259 2228 
z
M 1259 4147 
L 1259 2741 
L 2194 2741 
Q 2656 2741 2882 2914 
Q 3109 3088 3109 3444 
Q 3109 3797 2882 3972 
Q 2656 4147 2194 4147 
L 1259 4147 
z
M 628 4666 
L 2241 4666 
Q 2963 4666 3353 4366 
Q 3744 4066 3744 3513 
Q 3744 3084 3544 2831 
Q 3344 2578 2956 2516 
Q 3422 2416 3680 2098 
Q 3938 1781 3938 1306 
Q 3938 681 3513 340 
Q 3088 0 2303 0 
L 628 0 
L 628 4666 
z
" id="DejaVuSans-42" transform="scale(0.015625)"/>
      <path d="M 628 4666 
L 1569 4666 
L 2759 1491 
L 3956 4666 
L 4897 4666 
L 4897 0 
L 4281 0 
L 4281 4097 
L 3078 897 
L 2444 897 
L 1241 4097 
L 1241 0 
L 628 0 
L 628 4666 
z
" id="DejaVuSans-4d" transform="scale(0.015625)"/>
      <path d="M 3513 2113 
L 3513 0 
L 2938 0 
L 2938 2094 
Q 2938 2591 2744 2837 
Q 2550 3084 2163 3084 
Q 1697 3084 1428 2787 
Q 1159 2491 1159 1978 
L 1159 0 
L 581 0 
L 581 4863 
L 1159 4863 
L 1159 2956 
Q 1366 3272 1645 3428 
Q 1925 3584 2291 3584 
Q 2894 3584 3203 3211 
Q 3513 2838 3513 2113 
z
" id="DejaVuSans-68" transform="scale(0.015625)"/>
     </defs>
     <use xlink:href="#DejaVuSans-41"/>
     <use x="62.533203" xlink:href="#DejaVuSans-76"/>
     <use x="121.712891" xlink:href="#DejaVuSans-65"/>
     <use x="183.236328" xlink:href="#DejaVuSans-72"/>
     <use x="224.349609" xlink:href="#DejaVuSans-61"/>
     <use x="285.628906" xlink:href="#DejaVuSans-67"/>
     <use x="349.105469" xlink:href="#DejaVuSans-65"/>
     <use x="410.628906" xlink:href="#DejaVuSans-20"/>
     <use x="442.416016" xlink:href="#DejaVuSans-6e"/>
     <use x="505.794922" xlink:href="#DejaVuSans-75"/>
     <use x="569.173828" xlink:href="#DejaVuSans-6d"/>
     <use x="666.585938" xlink:href="#DejaVuSans-62"/>
     <use x="730.0625" xlink:href="#DejaVuSans-65"/>
     <use x="791.585938" xlink:href="#DejaVuSans-72"/>
     <use x="832.699219" xlink:href="#DejaVuSans-20"/>
     <use x="864.486328" xlink:href="#DejaVuSans-6f"/>
     <use x="925.667969" xlink:href="#DejaVuSans-66"/>
     <use x="960.873047" xlink:href="#DejaVuSans-20"/>
     <use x="992.660156" xlink:href="#DejaVuSans-65"/>
     <use x="1054.183594" xlink:href="#DejaVuSans-72"/>
     <use x="1093.546875" xlink:href="#DejaVuSans-67"/>
     <use x="1157.023438" xlink:href="#DejaVuSans-6f"/>
     <use x="1218.205078" xlink:href="#DejaVuSans-64"/>
     <use x="1281.681641" xlink:href="#DejaVuSans-69"/>
     <use x="1309.464844" xlink:href="#DejaVuSans-63"/>
     <use x="1364.445312" xlink:href="#DejaVuSans-20"/>
     <use x="1396.232422" xlink:href="#DejaVuSans-73"/>
     <use x="1448.332031" xlink:href="#DejaVuSans-65"/>
     <use x="1509.855469" xlink:href="#DejaVuSans-74"/>
     <use x="1549.064453" xlink:href="#DejaVuSans-73"/>
     <use x="1601.164062" xlink:href="#DejaVuSans-20"/>
     <use x="1632.951172" xlink:href="#DejaVuSans-66"/>
     <use x="1668.15625" xlink:href="#DejaVuSans-6f"/>
     <use x="1729.337891" xlink:href="#DejaVuSans-72"/>
     <use x="1770.451172" xlink:href="#DejaVuSans-20"/>
     <use x="1802.238281" xlink:href="#DejaVuSans-53"/>
     <use x="1865.714844" xlink:href="#DejaVuSans-42"/>
     <use x="1934.318359" xlink:href="#DejaVuSans-4d"/>
     <use x="2020.597656" xlink:href="#DejaVuSans-20"/>
     <use x="2052.384766" xlink:href="#DejaVuSans-67"/>
     <use x="2115.861328" xlink:href="#DejaVuSans-72"/>
     <use x="2156.974609" xlink:href="#DejaVuSans-61"/>
     <use x="2218.253906" xlink:href="#DejaVuSans-70"/>
     <use x="2281.730469" xlink:href="#DejaVuSans-68"/>
     <use x="2345.109375" xlink:href="#DejaVuSans-73"/>
    </g>
   </g>
   <g id="legend_1">
    <g id="patch_7">
     <path d="M 344.007812 78.834375 
L 414.2 78.834375 
Q 416.2 78.834375 416.2 76.834375 
L 416.2 33.8 
Q 416.2 31.8 414.2 31.8 
L 344.007812 31.8 
Q 342.007812 31.8 342.007812 33.8 
L 342.007812 76.834375 
Q 342.007812 78.834375 344.007812 78.834375 
z
" style="fill:#ffffff;opacity:0.8;stroke:#cccccc;stroke-linejoin:miter;"/>
    </g>
    <g id="line2d_36">
     <path d="M 346.007812 39.898437 
L 366.007812 39.898437 
" style="fill:none;stroke:#1f77b4;stroke-linecap:square;stroke-width:1.5;"/>
    </g>
    <g id="line2d_37"/>
    <g id="text_13">
     <!-- inputs -->
     <g transform="translate(374.007812 43.398437)scale(0.1 -0.1)">
      <use xlink:href="#DejaVuSans-69"/>
      <use x="27.783203" xlink:href="#DejaVuSans-6e"/>
      <use x="91.162109" xlink:href="#DejaVuSans-70"/>
      <use x="154.638672" xlink:href="#DejaVuSans-75"/>
      <use x="218.017578" xlink:href="#DejaVuSans-74"/>
      <use x="257.226562" xlink:href="#DejaVuSans-73"/>
     </g>
    </g>
    <g id="line2d_38">
     <path d="M 346.007812 54.576562 
L 366.007812 54.576562 
" style="fill:none;stroke:#ff7f0e;stroke-linecap:square;stroke-width:1.5;"/>
    </g>
    <g id="line2d_39"/>
    <g id="text_14">
     <!-- outputs -->
     <g transform="translate(374.007812 58.076562)scale(0.1 -0.1)">
      <use xlink:href="#DejaVuSans-6f"/>
      <use x="61.181641" xlink:href="#DejaVuSans-75"/>
      <use x="124.560547" xlink:href="#DejaVuSans-74"/>
      <use x="163.769531" xlink:href="#DejaVuSans-70"/>
      <use x="227.246094" xlink:href="#DejaVuSans-75"/>
      <use x="290.625" xlink:href="#DejaVuSans-74"/>
      <use x="329.833984" xlink:href="#DejaVuSans-73"/>
     </g>
    </g>
    <g id="line2d_40">
     <path d="M 346.007812 69.254687 
L 366.007812 69.254687 
" style="fill:none;stroke:#2ca02c;stroke-dasharray:5.55,2.4;stroke-dashoffset:0;stroke-width:1.5;"/>
    </g>
    <g id="line2d_41"/>
    <g id="text_15">
     <!-- fit -->
     <g transform="translate(374.007812 72.754687)scale(0.1 -0.1)">
      <use xlink:href="#DejaVuSans-66"/>
      <use x="35.205078" xlink:href="#DejaVuSans-69"/>
      <use x="62.988281" xlink:href="#DejaVuSans-74"/>
     </g>
    </g>
   </g>
  </g>
 </g>
 <defs>
  <clipPath id="p5aa27228d8">
   <rect height="218.49375" width="378.908281" x="42.291719" y="26.8"/>
  </clipPath>
 </defs>
</svg>
